<svg width="157" height="43" viewBox="0 0 157 43" fill="none" xmlns="http://www.w3.org/2000/svg">
<path d="M77.1371 24.0512V23.6605H77.7538C78.7999 23.6605 79.8428 23.5055 80.8212 23.1471C83.7013 22.0913 85.4836 19.6988 85.4545 16.541C85.419 12.2918 82.4227 9.20508 77.5988 9.20508H68.9746V34.9969H73.2496V23.6637L84.4697 34.9969H89.8425L81.4798 26.5213C80.2916 25.3169 78.7902 24.4613 77.1403 24.0544L77.1371 24.0512ZM73.2496 19.9571V13.1281H77.0854C79.6071 13.1281 81.1796 14.326 81.1796 16.541C81.1796 18.7559 79.6104 19.9538 77.0854 19.9538H73.2496V19.9571Z" fill="#302C27"/>
<path d="M93.3418 9.20508H101.204C108.814 9.20508 114.623 14.8006 114.623 22.101C114.623 29.4014 108.814 34.9969 101.204 34.9969H93.3418V9.20508ZM101.204 31.0416C106.687 31.0416 110.332 27.1541 110.332 22.1042C110.332 17.0543 106.69 13.1701 101.204 13.1701H97.5619V31.0448H101.204V31.0416Z" fill="#302C27"/>
<path d="M119.611 9.20508H135.013V13.2734H123.831V19.886H131.694V23.9543H123.831V30.9286H135.013V34.9969H119.611V9.20508Z" fill="#302C27"/>
<path d="M141.064 9.20508H156.469V13.2734H145.288V19.886H153.15V23.9543H145.288V30.9286H156.469V34.9969H141.064V9.20508Z" fill="#302C27"/>
<path d="M44.8379 32.8019C44.9251 32.5468 45.0155 32.3014 45.1091 32.0625L44.8379 32.8019Z" fill="#302C27"/>
<path d="M47.97 23.8123C43.3593 23.1342 45.5 19.6923 46.6462 16.2633C46.6462 16.2568 46.5138 16.6185 46.5171 16.612L49.2712 9.20508H54.2824L63.8332 35.0001H59.3323L51.7607 13.7771L50.3077 17.7744C49.2164 21.0097 49.7814 23.4765 53.6302 23.8155V24.2288C49.113 24.8003 46.827 27.8386 45.3321 31.4936C45.261 31.6745 44.0373 35.0034 44.0373 35.0034H39.6816C39.6816 35.0034 42.0258 28.6878 42.029 28.6813C43.1268 25.9304 44.3053 24.3418 47.9668 24.232V23.8187L47.97 23.8123Z" fill="#302C27"/>
<path d="M45.1072 32.0586L44.8359 32.798C44.9231 32.5429 45.0135 32.2975 45.1072 32.0586Z" fill="#302C27"/>
<path d="M41.8912 29.0664L41.0098 31.4396C41.3262 30.5743 41.6039 29.78 41.8912 29.0664Z" fill="#302C27"/>
<path d="M22.3894 21.9205L41.8205 0.568273L41.362 0.106551L20.097 19.6571C19.9388 19.8056 19.6837 19.6991 19.6708 19.4827L18.4826 0H17.8336L15.9512 26.1567L41.8851 24.3453V23.6931L22.5606 22.3499C22.3475 22.337 22.2441 22.0787 22.3894 21.9205Z" fill="#302C27"/>
<path d="M0 27.2708V27.923L10.2354 29.1274C10.442 29.1467 10.5389 29.3954 10.4033 29.5503L0.119466 41.6391L0.577959 42.1008L12.5375 31.6943C12.6925 31.5587 12.9379 31.6555 12.9573 31.8622L14.1422 42.1686H14.8042L15.9568 26.1504L0.00645749 27.2643L0 27.2708Z" fill="#302C27"/>
</svg>
