<svg width="144" height="71" viewBox="0 0 144 71" fill="none" xmlns="http://www.w3.org/2000/svg">
<path d="M25.0212 10.8301H31.247L34.0052 40.9943L36.7044 10.8301H42.6149L37.6304 48.6731H30.0058L25.0212 10.8301Z" fill="#000"/>
<path d="M49.8651 10.8301H62.2969V15.2602H56.0909V23.9235H61.233V28.0189H56.0909V44.243H62.5136V48.6731H49.8651V10.8301Z" fill="#000"/>
<path d="M70.0397 10.8301H76.758L82.1562 35.8553V10.8301H87.2393V48.6731H80.9741L75.1818 24.022V48.6731H70.0397V10.8301Z" fill="#000"/>
<path d="M95.9672 10.8301H108.399V15.2602H102.173V23.9235H107.315V28.0189H102.173V44.243H108.616V48.6731H95.9672V10.8301Z" fill="#000"/>
<path d="M115.216 10.8301H121.442L123.175 38.9466L125.618 10.8301H131.943L134.366 39.0056L136.1 10.8301H141.833L137.952 48.6731H131.076L128.593 19.4737L126.15 48.6731H119.117L115.216 10.8301Z" fill="#000"/>
<path d="M17.0814 2.16602H5.87109V6.30079H17.0814V2.16602Z" fill="#000"/>
<path d="M15.8796 10.8301H7.07288L2.40356 48.6731H8.25498L8.96424 41.5456L9.39768 37.1154L11.289 17.3276L13.1804 37.1154L13.6139 41.5456L14.3231 48.6731H20.5292L15.8796 10.8301Z" fill="#000"/>
<path d="M3.40845 68.3807H4.96489C5.67415 68.3807 6.2849 68.2429 6.75775 67.9672C7.23059 67.6915 7.58522 67.2978 7.82164 66.7858C8.05806 66.2739 8.17627 65.6635 8.17627 64.9547C8.17627 64.2459 8.05806 63.6552 7.84134 63.1433C7.60492 62.6314 7.26999 62.2376 6.81685 61.9816C6.36371 61.706 5.79236 61.5681 5.1225 61.5681H3.44785V68.3807H3.40845ZM5.04369 69.3061H2.36426V60.623H5.1619C6.00908 60.623 6.71834 60.8003 7.3291 61.135C7.92015 61.4894 8.39299 61.9816 8.70822 62.6314C9.02345 63.2811 9.18106 64.049 9.18106 64.9547C9.18106 65.8604 9.02344 66.648 8.68852 67.2978C8.37329 67.9475 7.90045 68.4594 7.26999 68.7942C6.65924 69.1486 5.91057 69.3258 5.02399 69.3258" fill="#000"/>
<path d="M16.2145 69.3061V60.623H21.4551V61.5681H17.2784V64.5019H21.199V65.4273H17.2784V68.3807H21.5339V69.3061H16.2145Z" fill="#000"/>
<path d="M28.9812 60.623L31.5622 67.9475H31.6607L34.2416 60.623H35.3449L32.1532 69.3061H31.0696L27.8779 60.623H28.9812Z" fill="#000"/>
<path d="M41.9647 69.3061V60.623H47.2251V61.5681H43.0286V64.5019H46.9493V65.4273H43.0286V68.3807H47.2842V69.3061H41.9647Z" fill="#000"/>
<path d="M54.3768 69.3061V60.623H55.421V68.3807H59.4796V69.3061H54.3768Z" fill="#000"/>
<path d="M72.3448 64.9754C72.3448 64.2272 72.2266 63.5971 71.9705 63.0655C71.7143 62.5536 71.3794 62.1598 70.9657 61.8841C70.5323 61.6085 70.0594 61.4903 69.5275 61.4903C68.9955 61.4903 68.5227 61.6282 68.1089 61.8841C67.6755 62.1598 67.3406 62.5339 67.0844 63.0655C66.8283 63.5774 66.7101 64.2272 66.7101 64.9754C66.7101 65.7236 66.8283 66.3536 67.0844 66.8852C67.3406 67.3972 67.6755 67.7909 68.1089 68.0666C68.5424 68.3422 69.0152 68.4604 69.5275 68.4604C70.0397 68.4604 70.5323 68.3226 70.9657 68.0666C71.3991 67.7909 71.7341 67.4168 71.9705 66.8852C72.2266 66.3733 72.3448 65.7236 72.3448 64.9754ZM73.3496 64.9754C73.3496 65.9008 73.192 66.6883 72.8571 67.3578C72.5221 68.0272 72.069 68.5391 71.4976 68.8935C70.9263 69.248 70.2564 69.4449 69.5275 69.4449C68.7985 69.4449 68.1286 69.2676 67.5573 68.8935C66.9859 68.5391 66.5328 68.0075 66.1979 67.3578C65.8629 66.6883 65.7053 65.9008 65.7053 64.9754C65.7053 64.05 65.8629 63.2624 66.1979 62.5929C66.5328 61.9235 66.9859 61.4116 67.5573 61.0572C68.1286 60.7028 68.7985 60.5059 69.5275 60.5059C70.2564 60.5059 70.9263 60.6831 71.4976 61.0572C72.069 61.4116 72.5221 61.9432 72.8571 62.5929C73.192 63.2624 73.3496 64.05 73.3496 64.9754Z" fill="#000"/>
<path d="M80.3832 69.3061V60.623H83.3187C84.0083 60.623 84.5599 60.7412 84.9934 60.9971C85.4268 61.2334 85.742 61.5681 85.9587 61.9816C86.1755 62.3951 86.274 62.8676 86.274 63.3796C86.274 63.8915 86.1755 64.364 85.9587 64.7775C85.742 65.191 85.4268 65.5257 84.9934 65.7817C84.5599 66.0376 84.0083 66.1558 83.3187 66.1558H81.2106V65.2304H83.2793C83.7522 65.2304 84.1265 65.1516 84.4023 64.9941C84.6781 64.8366 84.8949 64.62 85.0131 64.3443C85.151 64.0687 85.2101 63.7537 85.2101 63.3993C85.2101 63.0448 85.151 62.7495 85.0131 62.4738C84.8752 62.1982 84.6781 61.9816 84.3826 61.8241C84.1068 61.6666 83.7127 61.5878 83.2399 61.5878H81.3879V69.3455H80.3438L80.3832 69.3061Z" fill="#000"/>
<path d="M93.2286 60.623H94.4895L97.4448 67.8294H97.5433L100.499 60.623H101.759V69.3061H100.774V62.7101H100.696L97.9768 69.3061H97.0311L94.3122 62.7101H94.2137V69.3061H93.2286V60.623Z" fill="#000"/>
<path d="M109.128 69.3061V60.623H114.369V61.5681H110.172V64.5019H114.093V65.4273H110.172V68.3807H114.447V69.3061H109.128Z" fill="#000"/>
<path d="M128.436 60.623V69.3061H127.411L122.663 62.4935H122.584V69.3061H121.54V60.623H122.545L127.313 67.4553H127.391V60.623H128.436Z" fill="#000"/>
<path d="M135.312 61.5681V60.623H141.833V61.5681H139.114V69.3061H138.05V61.5681H135.312Z" fill="#000"/>
</svg>
