<svg xmlns="http://www.w3.org/2000/svg" width="1920" height="1080"><path d="M1218 42v582h-32l-1-534-42 18c-17.812 7.438-17.812 7.438-26.64 11.102-10.494 4.357-20.958 8.784-31.422 13.21q-22.2 9.39-44.438 18.688a14665 14665 0 0 0-93.09 39.326 7232 7232 0 0 1-47.352 19.958 10309 10309 0 0 0-38.433 16.154l-2.822 1.192L839 236l-22.625 9.563-2.817 1.19a9146 9146 0 0 1-30.538 12.845l-2.765 1.156q-6.368 2.663-12.74 5.319C748.636 273.955 729.83 281.997 711 290l-1 485h112c-3.273 10.912-7.687 21.456-12 32H678V268c34.171-14.808 34.171-14.808 48.064-20.586 4.534-1.886 9.065-3.78 13.596-5.672l2.828-1.18c10.35-4.325 20.681-8.693 31.012-13.062a12308 12308 0 0 1 46.667-19.615c13.79-5.765 27.566-11.564 41.333-17.385q21.981-9.295 44-18.5a12624 12624 0 0 0 43.875-18.437l2.821-1.192L972 144q11.312-4.782 22.625-9.562l2.822-1.193c14.561-6.15 29.138-12.264 43.723-18.361q20.618-8.623 41.205-17.321l2.821-1.192L1105 88q11.312-4.783 22.625-9.562l2.798-1.183a11543 11543 0 0 1 47.732-20.03l4.97-2.077 2.422-1.009a832 832 0 0 0 13.226-5.661l2.898-1.265q2.769-1.21 5.529-2.44l2.519-1.099 2.217-.98C1214 42 1214 42 1218 42M109 907l34.375-.187 10.736-.083c4.425-.014 4.425-.014 6.516-.016q2.128-.007 4.255-.03c24.39-.254 46.593 4.64 64.993 21.691 14.214 15.305 17.788 33.724 17.438 53.836-.691 17.58-7.911 32.63-20.485 44.91C194.815 1054.676 146.963 1046 109 1046zm32 28v83c30.173 1.748 30.173 1.748 57-8l2.625-1.687c9.288-9.044 12.789-18.9 13.434-31.622-.201-12.663-4.09-23.157-13.184-32.004C183.904 930.478 162.045 935 141 935M1093 921l2.367 1.871c13.441 11.246 20.741 27.077 23.32 44.192 1.574 19.83-2.248 38.052-14.687 53.937l-1.617 2.117c-11.953 14.698-30.869 22.817-49.383 24.883-16.61.945-31.872-.559-47-8l-2.953-1.422c-16.374-8.658-27.52-23.345-33.305-40.805-4.93-18.425-3.845-38.783 5.258-55.773 10.812-17.6 25.327-29.138 45.309-34.965 24.982-5.938 52.336-2.285 72.691 13.965m-80.48 24.328c-9.022 9.927-12.333 21.673-11.895 34.969 1.192 11.77 5.724 21.407 14.355 29.578 9.327 7.446 20.261 10.451 32.165 10.008 10.64-1.367 21.657-6.294 28.402-14.844 7.932-11.191 10.44-22.449 9.453-36.039-2.092-11.14-7.237-20.66-16.18-27.758-3.115-2.126-6.359-3.759-9.82-5.242l-2.75-1.187c-15.644-3.911-31.766-.78-43.73 10.515M1526 907c88.085 0 88.085 0 105 14l1.957 1.582c7.703 6.897 12.25 17.414 13.262 27.626.727 14.129-.63 27.653-10.219 38.792-4.93 5.026-9.576 9.03-16 12 3.448 6.364 7.527 12.209 11.688 18.125l4.292 6.137c.69.982 1.378 1.965 2.088 2.978a2116 2116 0 0 1 7.432 10.697c.69 1 1.382 1.999 2.094 3.028L1649 1044l-1 2c-29.72 3.154-29.72 3.154-37.854-1.705-4.496-4.465-7.192-9.87-9.82-15.579-2.093-4.287-4.855-8.043-7.639-11.903a971 971 0 0 1-2.675-3.918c-1.731-2.673-1.731-2.673-3.012-3.895-2.07-.158-4.147-.251-6.223-.316l-3.437-.116-4.402-.13L1559 1008v38h-33zm33 28v46l14.688.25 4.545.11c10.169.083 20.828-.59 28.892-7.485 4.686-5.467 6.224-11.902 5.875-19-.985-6.673-4.052-11.638-9.375-15.75-5.59-3.938-12.11-4.418-18.746-4.32l-2.004.006c-2.438.01-4.875.038-7.312.064zM1357 907h105v27h-72v28h64v27h-64v30h75v26c-1 1-1 1-2.794 1.123l-2.388-.003-2.727.004-3.027-.01h-3.214c-3.451 0-6.903-.008-10.354-.016l-6.37-.003c-7.897-.006-15.793-.02-23.688-.033L1357 1046zM654 907h105v27h-72v28h64v27h-64v30h75v26c-1 1-1 1-2.794 1.123l-2.388-.003-2.727.004-3.027-.01h-3.214c-3.451 0-6.903-.008-10.354-.016l-6.37-.003c-7.897-.006-15.793-.02-23.688-.033L654 1046zM307 907h105v27h-72v28h64v26h-64v31h75v27q-20.901.034-41.801.052-9.705.007-19.408.023-9.356.016-18.713.02-3.577.003-7.156.01-4.994.01-9.986.009l-3.021.01-2.733-.004-2.388.003C308 1046 308 1046 307 1045a98 98 0 0 1-.12-5.36l-.004-3.522.01-3.9v-4.079q.001-5.553.013-11.107.007-5.798.008-11.595.005-10.986.021-21.972.018-14.84.024-29.68c.01-15.595.03-31.19.048-46.785M1179 907c89.838 0 89.838 0 108.117 16.91 9.288 10.31 12.6 23.433 12.164 37.09-1.2 12.794-5.383 24.297-14.968 33.156-12.829 10.228-27.912 14.05-44.09 13.942l-2.183-.003c-2.66-.006-5.318-.02-7.977-.033L1212 1008v38h-33zm33 28v46l13.375.125 4.154.055c9.748.044 20.281-.182 28.471-6.18 5.913-6.26 7.465-11.536 7.328-20.05-.56-5.042-2.187-8.967-5.328-12.95-7.044-5.599-12.991-7.161-21.828-7.098l-2.013.003c-2.47.006-4.94.02-7.409.033zM1233 675c-.61 3.486-1.516 6.587-2.848 9.863l-1.084 2.686-1.13 2.764A2212.223 2212.223 0 0 1 1224 700c-3.764-.667-6.859-1.775-10.315-3.427-14.31-6.798-29.89-10.003-45.514-5.816-5.106 2.012-8.357 4.52-11.172 9.242-.88 4.004-.488 7.105 1.5 10.75 5.565 5.008 12.403 7.012 19.54 8.8l5.198 1.37q4.026 1.045 8.055 2.072c33.676 8.622 33.676 8.622 42.328 22.633 5.282 10.295 5.966 21.442 3.695 32.793-4.002 11.776-12.402 20.386-23.441 25.832-19.386 8.23-43.696 8.675-63.875 2.75l-3.207-.914c-9.498-2.94-17.885-7.07-25.793-13.086.55-6.011 3.049-10.978 5.563-16.375l1.287-2.809q1.565-3.412 3.15-6.816c3.983.867 6.83 2.613 10.313 4.75 15.481 9.185 33.114 12.472 50.94 9.754 5.297-1.431 8.875-3.632 12.747-7.504 1.615-3.23 1.579-6.508 1-10-5.85-8.044-16.067-10.028-25.187-12.312-8.523-2.226-16.994-4.535-25.376-7.25l-2.498-.777c-10.151-3.369-20.018-9.91-25.252-19.473-5.013-11.126-4.847-23.329-.792-34.696 5.534-12.477 15.714-19.566 28.105-24.492 23.474-7.655 58.28-6.762 78 10M1806 917c-2.298 9.105-6.14 17.477-10 26l-2.02-.812c-16.787-6.689-34.904-13.733-52.988-7.157-3.18 1.546-4.983 3.053-6.992 5.969-1.217 3.774-1.511 6.9.204 10.59 5.51 7.394 17.445 8.831 25.962 10.863 36.943 8.862 36.943 8.862 47.643 23.555 3.495 5.844 3.557 11.001 3.566 17.68l.074 2.857c.045 10.89-3.543 18.413-11.039 26.201-12.912 12.075-29.825 15.664-47.035 15.566l-3.166-.014c-16.762-.251-38.838-3.305-52.209-14.298-1.264-3.942-.905-6.092.836-9.793l1.226-2.658 1.313-2.736c.425-.915.85-1.83 1.29-2.772 1.412-3.03 2.84-6.05 4.335-9.041 3.417.577 6.155 2.088 9.175 3.73 15.605 8.392 34.094 12.612 51.638 8.082 4.017-1.489 6.675-3.247 9.187-6.812 1.054-3.69 1.323-5.955.188-9.625-7.162-7.775-19.13-9.448-29-11.875-34.183-8.466-34.183-8.466-45.188-23.5-5.075-8.83-5.212-19.855-2.875-29.562 3.259-10.626 9.118-18.431 18.668-24.094 26.046-13.748 62.23-11.76 87.207 3.656M456 907h36c13.45 31.284 26.756 62.628 40 94 2.473-2.473 3.306-4.757 4.668-7.988l.812-1.911q.887-2.092 1.77-4.186c1.642-3.9 3.303-7.794 4.96-11.688l1.108-2.604c4.758-11.175 9.595-22.316 14.43-33.457q2.33-5.37 4.657-10.74l2.896-6.672 1.349-3.114 1.25-2.876 1.087-2.506c.948-2.113 1.978-4.187 3.013-6.258h33c-.909 4.545-2.291 8.334-4.14 12.527l-.965 2.219q-1.567 3.598-3.145 7.192-1.1 2.521-2.197 5.044a8255 8255 0 0 1-4.453 10.209c-2.882 6.596-5.74 13.203-8.6 19.809l-2.356 5.435c-4.393 10.134-8.776 20.273-13.159 30.412A50931 50931 0 0 1 548 1046h-33c-4.4-9.2-8.53-18.483-12.531-27.863l-1.585-3.708-3.272-7.656c-2.486-5.82-4.98-11.638-7.471-17.457l-2.92-6.817-1.473-3.438-3.051-7.127c-5.239-12.238-10.483-24.474-15.806-36.676l-1.159-2.66q-2.62-6.016-5.262-12.024l-1.814-4.156-1.568-3.57C456 910 456 910 456 907"/><path d="M908 663q6.113-.148 12.225-.22 2.08-.03 4.159-.082c1.992-.048 3.986-.069 5.98-.089l3.633-.063c3.003.454 3.003.454 4.757 2.137a113 113 0 0 1 3.82 7.786l1.497 3.36 1.616 3.671 1.724 3.88q1.845 4.152 3.683 8.309c2.859 6.468 5.731 12.93 8.603 19.394l1.992 4.486a8165 8165 0 0 0 16.374 36.619l1.13 2.515a3744 3744 0 0 0 12.28 27.055l2.122 4.632q1.985 4.329 3.987 8.648l1.77 3.857 1.557 3.37C1002 805 1002 805 1002 808h-33c-5.617-11.234-5.617-11.234-7.462-15.87l-1.262-3.143-1.319-3.311c-5.878-14.588-12.05-29.043-18.27-43.489l-3.166-7.369q-2.974-6.924-5.953-13.848-4.294-9.98-8.568-19.97c-8.132 17.902-15.866 35.97-23.562 54.063l-1.46 3.432A26332 26332 0 0 0 877 808h-33c.807-4.033 1.645-6.768 3.309-10.426l1.485-3.288 1.644-3.598 1.735-3.835q1.893-4.185 3.794-8.369c2.1-4.625 4.185-9.257 6.267-13.89l1.095-2.435 2.227-4.956q2.874-6.39 5.753-12.781l9.351-20.781A35555 35555 0 0 1 908 663M999.73 660.974c6.223.11 11.3.45 16.27 4.425 4.892 6.167 8.081 13.184 11.19 20.38 3.033 6.996 6.92 13.343 10.982 19.782 1.801 2.865 3.557 5.758 5.316 8.65.615 1.008 1.23 2.015 1.862 3.054 1.94 3.215 3.814 6.46 5.65 9.735a236 236 0 0 0 12.937-20 1294 1294 0 0 1 15.625-26c.68-1.103 1.358-2.207 2.057-3.344 3.624-5.873 3.624-5.873 5.381-8.656l1.753-3.307C1091 663 1091 663 1094.392 662.319q2 .002 3.999.095l2.135.026c2.243.033 4.482.109 6.724.185q2.285.045 4.57.082c3.728.066 7.454.17 11.18.293-1.46 3.974-3.349 7.445-5.535 11.066l-1.062 1.765a2341 2341 0 0 1-3.466 5.732l-2.439 4.044A6998 6998 0 0 1 1103 698l-2.238 3.696q-5.758 9.502-11.532 18.992a10218 10218 0 0 0-8.003 13.183l-8.91 14.695-1.8 2.967A179 179 0 0 1 1067 757c-.327 2.362-.327 2.362-.319 5.022l-.06 3.094-.035 3.333-.059 3.418c-.06 3.607-.106 7.213-.152 10.82q-.057 3.666-.117 7.33c-.098 5.995-.177 11.989-.258 17.983h-31l.238-10.418c.032-3.406.042-6.812.049-10.218q.024-3.495.121-6.99c.46-17.338-2.46-28.154-12.78-42.123-2.295-3.173-4.271-6.497-6.237-9.88q-1.035-1.733-2.071-3.463l-1.023-1.714q-2.82-4.727-5.649-9.448l-1.16-1.94a2228 2228 0 0 0-9.283-15.342q-2.681-4.403-5.372-8.802c-4.76-7.806-9.334-15.704-13.833-23.662 3.915-3.915 16.445-2.925 21.73-3.026M823 907h33v111h69v27c-1.953 1.953-4.93 1.12-7.529 1.124l-2.856-.01h-3.034c-3.258 0-6.515-.008-9.772-.016l-6.014-.003c-7.452-.006-14.905-.02-22.357-.033L823 1046z"/></svg>