<?xml version="1.0" encoding="UTF-8"?>
<svg version="1.1" xmlns="http://www.w3.org/2000/svg" width="3872" height="644">
<path d="M0 0 C45.87 0 91.74 0 139 0 C142.3 5.28 145.6 10.56 149 16 C151.13518367 19.32058711 153.27527834 22.63487054 155.4375 25.9375 C156.54833199 27.64052397 157.65900643 29.34365072 158.76953125 31.046875 C159.31174316 31.87767578 159.85395508 32.70847656 160.41259766 33.56445312 C162.8254576 37.26649724 165.22599932 40.97646499 167.625 44.6875 C168.52994313 46.08724268 169.43489101 47.48698228 170.33984375 48.88671875 C170.78183105 49.57040527 171.22381836 50.2540918 171.67919922 50.95849609 C172.9734554 52.95897117 174.26961316 54.95819997 175.56640625 56.95703125 C181.03421658 65.38879737 186.46336293 73.84456305 191.875 82.3125 C198.371606 92.47656959 204.92370341 102.6028988 211.50927734 112.70947266 C215.24573387 118.45061826 218.96031851 124.20595842 222.67919922 129.95849609 C223.9734554 131.95897117 225.26961316 133.95819997 226.56640625 135.95703125 C232.03421658 144.38879737 237.46336293 152.84456305 242.875 161.3125 C249.37904077 171.48820144 255.9384521 181.62628188 262.53125 191.74462891 C269.32194674 202.17223138 276.05091618 212.63832956 282.75 223.125 C288.56520646 232.22685311 294.43686218 241.28947936 300.35009766 250.32788086 C305.67034508 258.47019078 310.91457881 266.65986658 316.14916992 274.85742188 C321.88798975 283.83955612 327.69020288 292.77920986 333.50927734 301.70947266 C335.88798931 305.36441463 338.25698719 309.02562018 340.625 312.6875 C341.07286865 313.37996826 341.5207373 314.07243652 341.98217773 314.78588867 C343.76639427 317.544903 345.55018035 320.30419552 347.33398438 323.06347656 C353.94647855 333.29112267 360.57510185 343.50816498 367.21513367 353.71795654 C367.73708156 354.5205125 368.25902945 355.32306847 368.79679394 356.14994431 C369.19385194 356.76046268 369.59090994 357.37098106 370 358 C365.95960312 333.35921463 361.69480161 308.76449912 357.28157783 284.18794203 C356.42279718 279.40280587 355.56652851 274.61722007 354.70991516 269.83169556 C353.24990186 261.67715434 351.78831824 253.52289593 350.32562256 245.36883545 C348.23475586 233.71283356 346.1469424 222.05628617 344.05963993 210.39964557 C337.2235968 172.22538065 330.37613954 134.05318629 323.49584007 95.88687134 C322.66006723 91.25057206 321.82477955 86.61418547 320.98957825 81.9777832 C320.45848468 79.02978171 319.92736567 76.08178481 319.39624023 73.13378906 C319.26825047 72.42334662 319.1402607 71.71290419 319.00839245 70.98093319 C317.51664821 62.70114133 316.02235473 54.42181801 314.5238983 46.14323819 C313.50008133 40.48616026 312.47954278 34.82849505 311.46022606 29.17060471 C311.04963694 26.89521185 310.63781801 24.62004051 310.22466469 22.34511185 C309.67055827 19.29362024 309.12063734 16.24140374 308.57177734 13.18896484 C308.41004563 12.30450054 308.24831392 11.42003624 308.08168125 10.50876999 C307.9373714 9.70128941 307.79306154 8.89380882 307.64437866 8.06185913 C307.45620355 7.02167916 307.45620355 7.02167916 307.26422691 5.96048546 C307 4 307 4 307 0 C344.95 0 382.9 0 422 0 C422 158.07 422 316.14 422 479 C389.33 479 356.66 479 323 479 C310.48554027 461.93482764 310.48554027 461.93482764 306.6875 456.3125 C305.76900888 454.96561379 304.84969733 453.61928679 303.9296875 452.2734375 C303.4562793 451.58088867 302.98287109 450.88833984 302.49511719 450.17480469 C299.79314855 446.24450805 297.05160587 442.34196255 294.3125 438.4375 C287.19301948 428.28417779 280.10993414 418.10581085 273.03222656 407.92333984 C269.68938946 403.11469839 266.34463022 398.30739435 263 393.5 C258.97558673 387.71552151 254.95160986 381.93074203 250.9296875 376.14453125 C244.63303296 367.08703587 238.33017898 358.03410575 232 349 C224.9867762 338.99108783 218.00763194 328.95863195 211.03222656 318.92333984 C207.68938945 314.11469838 204.34460619 309.30741108 201 304.5 C199.66665713 302.58333997 198.3333238 300.6666733 197 298.75 C196.34 297.80125 195.68 296.8525 195 295.875 C189 287.25 189 287.25 186.99951172 284.37426758 C185.66784415 282.46001577 184.3361385 280.54579046 183.00439453 278.6315918 C179.64526025 273.80319568 176.28681497 268.97432293 172.9296875 264.14453125 C166.63303296 255.08703587 160.33017898 246.03410575 154 237 C146.9867762 226.99108783 140.00763194 216.95863195 133.03222656 206.92333984 C129.68938945 202.11469838 126.34460619 197.30741108 123 192.5 C121.66665713 190.58333997 120.3333238 188.6666733 119 186.75 C118.34 185.80125 117.68 184.8525 117 183.875 C111 175.25 111 175.25 108.99951172 172.37426758 C107.66784415 170.46001577 106.3361385 168.54579046 105.00439453 166.6315918 C101.64526025 161.80319568 98.28681497 156.97432293 94.9296875 152.14453125 C88.06920654 142.27599325 81.19660565 132.41626133 74.29956055 122.57324219 C64.15046902 108.08319594 54.06010867 93.55194577 44 79 C47.46955863 99.30475057 51.04675694 119.5886519 54.68299937 139.86413288 C55.27070832 143.14200313 55.85773201 146.41999597 56.44476908 149.6979866 C58.04275287 158.62100123 59.64213234 167.54376515 61.24220246 176.46640587 C62.4208913 183.03928678 63.59914639 189.61224532 64.77719116 196.1852417 C78.68692296 273.79252355 92.67219489 351.38616822 106.67578125 428.9765625 C106.83281816 429.84667308 106.98985507 430.71678366 107.15165067 431.61326122 C108.04390149 436.55695185 108.93625702 441.50062355 109.82876635 446.44426751 C110.09441255 447.91572011 110.36003877 449.38717632 110.6256423 450.85863662 C110.8719879 452.22336473 111.11841092 453.58807887 111.36491978 454.9527775 C111.70293189 456.82550316 112.03989846 458.69841744 112.37682533 460.57133865 C112.78157877 462.79826238 113.19387065 465.02383392 113.6149807 467.24772263 C113.79905291 468.22408298 113.98312511 469.20044334 114.17277527 470.20639038 C114.33345584 471.04284277 114.49413641 471.87929516 114.65968609 472.74109459 C115 475 115 475 115 479 C77.05 479 39.1 479 0 479 C0 320.93 0 162.86 0 0 Z " fill="#000" transform="translate(2661,67)"/>
<path d="M0 0 C47.2725 -0.020625 94.545 -0.04125 143.25 -0.0625 C158.15575195 -0.071604 173.06150391 -0.08070801 188.41894531 -0.09008789 C206.67333984 -0.09460449 206.67333984 -0.09460449 215.22918701 -0.09544373 C221.18247883 -0.09637232 227.13576116 -0.10002371 233.08905029 -0.10557556 C239.97026968 -0.11198318 246.85148003 -0.11482616 253.73270242 -0.11344495 C257.24566521 -0.11284774 260.75860786 -0.11373166 264.27156687 -0.11921513 C303.65139939 -0.17165771 303.65139939 -0.17165771 319.5625 2.25 C320.85063599 2.44287598 320.85063599 2.44287598 322.16479492 2.63964844 C349.39934974 6.96362396 375.90805685 17.07063112 392.75 40.125 C402.87470374 55.61090643 408.42266979 73.47523078 409 92 C409.03996094 93.28132813 409.07992188 94.56265625 409.12109375 95.8828125 C409.71035504 124.77991999 401.8064906 150.32043306 381.6875 171.6875 C354.83581159 196.92311457 317.87574565 208.01820802 283.25 217.8125 C280.89043547 218.48566415 278.53105927 219.15948876 276.171875 219.83398438 C270.95420762 221.32434102 265.73463605 222.80782553 260.51379395 224.28701782 C257.34123288 225.18684475 254.17036677 226.09247557 251 227 C251.68808243 227.06628601 252.37616486 227.13257202 253.08509827 227.2008667 C259.68635829 227.83839135 266.28671198 228.48458119 272.88625431 229.13965988 C276.27620749 229.47586522 279.6663873 229.80912599 283.05737305 230.13476562 C328.19960343 234.48905236 375.70899773 241.53498336 407 278 C427.04876424 303.09005366 431.8961066 336.10615216 428.50390625 367.36328125 C424.33507424 398.64679982 408.65466414 426.22015566 384 446 C364.34890969 460.90268559 341.37978237 469.98259882 317.4375 475.25 C316.75526367 475.40138428 316.07302734 475.55276855 315.37011719 475.70874023 C298.15623841 479.20889558 280.90076167 479.28639843 263.40604958 479.23214546 C259.81008953 479.22329766 256.21413395 479.22634211 252.61816597 479.2277813 C245.6644506 479.22883683 238.71078765 479.21967872 231.75708569 479.20677864 C223.69946168 479.19228312 215.6418684 479.19078394 207.58422852 479.18920898 C186.3478108 479.1787417 165.1114046 479.1508192 143.875 479.125 C96.39625 479.08375 48.9175 479.0425 0 479 C0 320.93 0 162.86 0 0 Z M122 30 C122 91.38 122 152.76 122 216 C197.33320009 220.51154602 197.33320009 220.51154602 263.140625 189.07421875 C280.06950796 171.55044532 285.25775622 146.24204773 285.24926758 122.65209961 C284.77339544 96.37001507 277.36225478 72.18670948 258.984375 52.8828125 C223.72778865 19.3237655 163.18996341 30 122 30 Z M122 246 C122 313.32 122 380.64 122 450 C202.70701488 454.525672 202.70701488 454.525672 273.0625 420.16015625 C293.43026441 398.84919549 299.59741238 368.84645878 298.97607422 340.25390625 C297.91463479 313.95892372 288.84799156 288.7596692 270 270 C230.76868977 234.54809686 168.31924857 246 122 246 Z " fill="#000" transform="translate(87,67)"/>
<path d="M0 0 C314.76482759 0 314.76482759 0 386.48925781 68.55664062 C387.51252583 69.53426838 388.54069027 70.50679224 389.57324219 71.47460938 C398.83080401 80.17502918 406.63242259 89.65940898 414 100 C414.4120166 100.5779834 414.8240332 101.1559668 415.24853516 101.75146484 C454.21870845 157.35909602 463.21673608 231.25139752 451.80029297 297.01293945 C444.55417009 335.76214018 429.33601821 373.23458376 403 403 C402.54125488 403.51900879 402.08250977 404.03801758 401.60986328 404.57275391 C351.44347904 460.99132847 279.55589801 477.16294013 207 482 C138.69 482 70.38 482 0 482 C0 322.94 0 163.88 0 0 Z M124 29 C124 168.59 124 308.18 124 452 C176.2963064 454.21564737 176.2963064 454.21564737 228.625 446.375 C229.47562012 446.12411621 230.32624023 445.87323242 231.20263672 445.61474609 C244.88077456 441.37904987 257.98855939 435.24461302 269 426 C269.84691406 425.29101562 270.69382812 424.58203125 271.56640625 423.8515625 C309.75083073 390.62236868 318.60310213 339.16271402 321.98657227 291.04077148 C326.13060838 227.75860591 328.51246732 152.13223031 297 95 C296.4121875 93.91074219 295.824375 92.82148438 295.21875 91.69921875 C291.41871261 84.90233369 287.02306746 78.93635245 282 73 C281.52046875 72.38640625 281.0409375 71.7728125 280.546875 71.140625 C276.10840516 65.57978348 270.60960488 61.32873224 265 57 C264.21753906 56.39027344 263.43507813 55.78054687 262.62890625 55.15234375 C223.19797075 25.96148256 169.96904206 29 124 29 Z " fill="#000" transform="translate(3344,66)"/>
<path d="M0 0 C124.08 0 248.16 0 376 0 C376 41.25 376 82.5 376 125 C365.79563034 121.99871481 355.64302123 118.98630918 345.53515625 115.69921875 C343.67081551 115.09622092 341.80647434 114.49322441 339.94211578 113.89028168 C337.98855752 113.25805115 336.03534941 112.6247501 334.08224487 111.99111938 C327.86583887 109.97452843 321.64708058 107.96520788 315.4285984 105.95503044 C313.32015413 105.2733863 311.21179247 104.5914871 309.10343933 103.90956116 C296.55614662 99.85210227 283.99888422 95.8261172 271.4375 91.8125 C267.35545137 90.50786688 263.27342863 89.20315277 259.19140625 87.8984375 C258.18629501 87.57721924 257.18118378 87.25600098 256.14561462 86.92504883 C244.71890489 83.27240642 233.29724859 79.60407323 221.875 75.9375 C188.59158054 65.26591035 155.29485534 54.63585657 122 44 C121.67 94.82 121.34 145.64 121 198 C194.26 198 267.52 198 343 198 C343 236.94 343 275.88 343 316 C335.52142267 313.960388 328.17578052 311.8304518 320.828125 309.40234375 C319.77328918 309.05627579 318.71845337 308.71020782 317.63165283 308.35365295 C314.17027096 307.21744738 310.71015005 306.07745078 307.25 304.9375 C304.79371523 304.1305688 302.33733321 303.3239336 299.88085938 302.51757812 C295.42384976 301.05431018 290.96707522 299.59033464 286.51069641 298.12514687 C275.30769999 294.44192301 264.09938124 290.77500126 252.89071655 287.10906982 C247.18863731 285.24397614 241.48690732 283.37781541 235.78515625 281.51171875 C234.65241776 281.14101257 233.51967926 280.7703064 232.35261536 280.3883667 C225.38736497 278.10883358 218.42229649 275.82874545 211.45735168 273.54827881 C181.3116844 263.67799524 151.16027714 253.8255549 121 244 C121.01252808 244.79778366 121.02505615 245.59556732 121.03796387 246.41752625 C121.20474797 257.17401384 121.35695151 267.93067185 121.5 278.6875 C121.51187725 279.58000584 121.5237545 280.47251167 121.53599167 281.39206314 C121.99767874 316.49067352 122.08705713 351.58614863 122.0625 386.6875 C122.06164398 387.91985256 122.06078796 389.15220512 122.05990601 390.4219017 C122.04856426 405.61461596 122.02856049 420.80730866 122 436 C122.96519058 435.6767424 123.93038116 435.3534848 124.92481995 435.02043152 C142.93489118 428.99114444 160.94850315 422.98233764 179.04946899 417.23025513 C182.12181826 416.25392756 185.19319982 415.27460022 188.2644043 414.29467773 C191.54443798 413.2481542 194.82451957 412.20178412 198.10487366 411.15626526 C209.07454868 407.65983554 220.03793443 404.14388914 231.00054932 400.62539673 C234.32821799 399.55745566 237.6560314 398.48996674 240.98388672 397.42260742 C250.91367733 394.23759991 260.84296874 391.0510552 270.77067566 387.85955811 C285.17684361 383.22841622 299.58638209 378.60790473 314 374 C314.64702126 373.79310799 315.29404251 373.58621597 315.96067047 373.3730545 C324.30237262 370.7058171 332.64537893 368.04273297 340.99134922 365.38887787 C344.38317482 364.31033948 347.77456382 363.23047938 351.16482544 362.14703369 C354.92344312 360.94600894 358.68425407 359.75195464 362.4453125 358.55859375 C363.57389175 358.19699661 364.70247101 357.83539948 365.86524963 357.46284485 C366.89730026 357.13664658 367.92935089 356.8104483 368.99267578 356.47436523 C369.89204865 356.18810776 370.79142151 355.90185028 371.7180481 355.60691833 C374 355 374 355 377 355 C376.67 395.92 376.34 436.84 376 479 C251.92 479 127.84 479 0 479 C0 320.93 0 162.86 0 0 Z " fill="#000" transform="translate(752,67)"/>
<path d="M0 0 C1.07233887 0.17160645 2.14467773 0.34321289 3.24951172 0.52001953 C19.1909719 3.12760526 34.64141127 7.0134095 50 12 C50.81984375 12.26506348 51.6396875 12.53012695 52.484375 12.80322266 C85.33951014 23.64840903 115.60306121 41.39816972 140.43945312 65.49072266 C142.0240222 67.02323299 143.62841457 68.53292253 145.234375 70.04296875 C153.85643874 78.27177251 161.05628345 87.33107358 168 97 C168.44972168 97.62100586 168.89944336 98.24201172 169.36279297 98.88183594 C188.51055582 125.57705094 200.45252221 157.03640308 206.75 189.125 C206.94883789 190.13667236 207.14767578 191.14834473 207.35253906 192.19067383 C210.5309782 209.31362877 211.37613504 226.17158926 211.3125 243.5625 C211.31034485 244.62270355 211.3081897 245.6829071 211.30596924 246.77523804 C211.25510118 262.37041591 210.92609048 277.63605322 208 293 C207.80132324 294.06798828 207.60264648 295.13597656 207.39794922 296.23632812 C195.74599769 357.0883177 164.01605689 411.09814369 112.52587891 446.52514648 C63.0801309 479.92569092 4.26771198 493.28248153 -54.875 493.1875 C-55.58310822 493.18689575 -56.29121643 493.1862915 -57.02078247 493.18566895 C-132.90881128 493.01196123 -205.36158083 470.16778671 -259.52124023 415.78149414 C-265.91293846 409.24142333 -271.70877873 402.45542789 -277 395 C-277.63276855 394.10982178 -277.63276855 394.10982178 -278.27832031 393.20166016 C-318.63494624 335.77811646 -330.74949889 263.39767997 -319.46386719 194.73828125 C-313.13391772 159.18561173 -300.10305398 125.40377969 -279 96 C-278.566875 95.39575195 -278.13375 94.79150391 -277.6875 94.16894531 C-271.41934986 85.52575391 -264.38330975 77.69353285 -257 70 C-256.21625 69.175 -255.4325 68.35 -254.625 67.5 C-241.3373972 53.83275141 -225.36686459 42.43852326 -208.82226562 33.03662109 C-207.09739303 32.05540338 -205.38423412 31.05367702 -203.671875 30.05078125 C-175.19594273 14.02494265 -143.1060497 5.07947927 -111 0 C-110.0198291 -0.16371094 -109.0396582 -0.32742187 -108.02978516 -0.49609375 C-73.3742927 -6.05291282 -34.60405594 -5.79656109 0 0 Z M-91 29 C-92.09852295 29.29801514 -92.09852295 29.29801514 -93.21923828 29.60205078 C-123.56764153 38.14413772 -146.12843996 57.5329568 -161.73828125 84.76171875 C-176.32395214 111.35315265 -183.32189019 141.6049965 -187.25 171.4375 C-187.40098145 172.57606445 -187.55196289 173.71462891 -187.70751953 174.88769531 C-190.50887702 197.8228228 -191.35161835 220.78776966 -191.25 243.875 C-191.24689819 245.13993286 -191.24379639 246.40486572 -191.24060059 247.70812988 C-191.18752461 266.20364833 -190.99964833 284.59562802 -189 303 C-188.80664062 304.81129395 -188.80664062 304.81129395 -188.609375 306.65917969 C-183.68275953 351.05573991 -173.79539491 397.70970407 -142 431 C-141.40058594 431.67417969 -140.80117187 432.34835937 -140.18359375 433.04296875 C-121.47762517 453.28420041 -92.40836583 461.8229287 -65.64990234 463.16845703 C-29.24169936 464.37784696 3.22072001 457.67122766 30.58642578 432.40551758 C75.54188073 389.32624839 79.71305695 314.9671099 81.11376953 256.62109375 C82.42787132 191.56165864 79.68061441 110.88267726 34 60 C33.31679687 59.23429687 32.63359375 58.46859375 31.9296875 57.6796875 C18.33442619 43.28175394 0.16690914 33.62418437 -19 29 C-20.16789062 28.70222656 -21.33578125 28.40445313 -22.5390625 28.09765625 C-43.42552595 23.42392712 -70.32668842 23.30601441 -91 29 Z " fill="#000" transform="translate(2239,62)"/>
<path d="M0 0 C52.47 0 104.94 0 159 0 C163.0976247 8.78062436 167.150944 17.49636292 170.90625 26.4140625 C171.34396729 27.44651093 171.78168457 28.47895935 172.23266602 29.54269409 C173.16974515 31.7530367 174.10575812 33.96383157 175.04077148 36.17504883 C177.58270589 42.18476525 180.13422661 48.19040634 182.6875 54.1953125 C182.94963791 54.81196526 183.21177582 55.42861801 183.4818573 56.06395721 C189.08473752 69.23970094 194.78385664 82.373055 200.5 95.5 C208.22117788 113.23917328 215.86871886 131.00775873 223.4375 148.8125 C223.90627563 149.91516205 224.37505127 151.0178241 224.85803223 152.15390015 C225.80688118 154.38589706 226.75572352 156.61789679 227.70455933 158.84989929 C228.17717194 159.96162003 228.64978455 161.07334076 229.13671875 162.21875 C229.61086212 163.33413651 230.08500549 164.44952301 230.57351685 165.59870911 C235.76425753 177.80500995 240.97806564 190.0014038 246.20046997 202.19418335 C247.21078273 204.55337059 248.22063179 206.91275647 249.22994995 209.27236938 C250.64680682 212.58447542 252.06517194 215.8959299 253.484375 219.20703125 C254.16053612 220.78584831 254.16053612 220.78584831 254.85035706 222.39656067 C257.24648484 227.97528927 259.67551638 233.53747616 262.14648438 239.08349609 C262.65826233 240.23436203 263.17004028 241.38522797 263.69732666 242.57096863 C264.68037567 244.77643356 265.6682414 246.9797596 266.66156006 249.18061829 C267.31877045 250.65488533 267.31877045 250.65488533 267.98925781 252.15893555 C268.57311249 253.45639961 268.57311249 253.45639961 269.16876221 254.78007507 C270 257 270 257 270 260 C270.66 260 271.32 260 272 260 C272.13063843 258.67343384 272.13063843 258.67343384 272.26391602 257.32006836 C273.12559898 251.35357648 275.04762115 245.63864714 276.77734375 239.87890625 C277.17515157 238.54102686 277.57249725 237.20300999 277.96942139 235.86486816 C278.83041701 232.96555033 279.69446955 230.06716762 280.56088257 227.16946411 C281.96790689 222.46334673 283.36793992 217.75516692 284.7668457 213.04663086 C286.26821567 207.99425294 287.76999334 202.94199833 289.27397156 197.89039612 C294.56571778 180.11520828 299.81893289 162.32869451 305.06985474 144.54141235 C306.69150398 139.048444 308.31425001 133.55580007 309.93725586 128.06323242 C315.1320469 110.48267828 320.32476409 92.90151471 325.51338196 75.31913757 C327.63273128 68.13748712 329.75276192 60.95603785 331.87295437 53.77463627 C333.60628489 47.90335818 335.33869238 42.03180877 337.07041454 36.16005611 C338.13918018 32.53699189 339.20881534 28.9141848 340.27869225 25.29144859 C340.77438744 23.61229976 341.26971854 21.9330434 341.76465797 20.25367165 C342.44174645 17.95642496 343.12013039 15.65956464 343.79882812 13.36279297 C343.99397349 12.69953538 344.18911886 12.03627779 344.39017773 11.35292149 C345.51957598 7.53683746 346.74037883 3.77886352 348 0 C393.87 0 439.74 0 487 0 C482.505716 8.98856799 482.505716 8.98856799 479.71484375 13.1796875 C479.10737305 14.09927246 478.49990234 15.01885742 477.87402344 15.96630859 C477.2349707 16.92617676 476.59591797 17.88604492 475.9375 18.875 C471.25632405 25.9737644 466.64464019 33.09501446 462.25 40.375 C458.34197156 46.84313894 454.31288889 53.21593879 450.18774414 59.54760742 C446.81096069 64.73408452 443.48578448 69.95077391 440.1875 75.1875 C435.81012433 82.13686072 431.4132472 89.07335985 427 96 C422.65266919 102.82456751 418.31651542 109.65589935 414 116.5 C409.09134054 124.28298144 404.15454694 132.04777456 399.2109375 139.80859375 C395.46109288 145.6976669 391.72441582 151.59481615 388 157.5 C380.77141965 168.95950384 373.48843444 180.38429513 366.20898438 191.81152344 C359.63334136 202.13492365 353.06803747 212.46445981 346.53857422 222.81713867 C342.12041622 229.81852335 337.67419777 236.80189599 333.22631836 243.78442383 C328.85792593 250.64488877 324.50726549 257.51635025 320.16992188 264.39648438 C319.72326172 265.10482422 319.27660156 265.81316406 318.81640625 266.54296875 C318.39845826 267.2283884 317.98051027 267.91380804 317.54989719 268.61999798 C316 271 316 271 314.22487545 273.16183949 C307.43723594 282.01991032 308.01637291 290.6795645 308.11352539 301.33276367 C308.10562652 303.27526265 308.09465854 305.21775118 308.08087158 307.16021729 C308.05226179 312.40556576 308.0663233 317.65001694 308.08831334 322.89536452 C308.10399238 328.38736828 308.08005868 333.87919953 308.06040955 339.37117004 C308.0292226 349.75841035 308.03342389 360.14531976 308.05048412 370.53258067 C308.07149373 384.57770485 308.03754415 398.62269072 308.00674725 412.66777897 C307.95970695 434.77867398 307.98584305 456.88886334 308 479 C268.07 479 228.14 479 187 479 C187.04382812 465.09746094 187.08765625 451.19492187 187.1328125 436.87109375 C187.1383047 428.05268784 187.14126398 419.23440096 187.1328125 410.41601562 C187.11987351 396.42531843 187.11714268 382.43516329 187.18164062 368.44458008 C187.22857356 358.25377418 187.24011543 348.06363343 187.2099179 337.87275368 C187.19515719 332.48107633 187.19760303 327.09069384 187.24249649 321.69915581 C187.2842807 316.61367016 187.27838077 311.53036817 187.23747826 306.4448967 C187.23066677 304.58867556 187.24058638 302.73229698 187.26943016 300.87628746 C187.46676329 287.27595403 184.48162158 279.57546265 176 269 C174.92886058 267.4239396 173.87158316 265.83804508 172.84643555 264.23168945 C172.3990654 263.55221756 171.95169525 262.87274567 171.49076843 262.17268372 C171.04393204 261.4930809 170.59709564 260.81347809 170.13671875 260.11328125 C169.63086746 259.34477341 169.12501617 258.57626556 168.60383606 257.7844696 C167.52460103 256.1447678 166.44555799 254.50493962 165.36669922 252.86499023 C162.40552984 248.36382334 159.44286081 243.8636435 156.48046875 239.36328125 C155.86545502 238.42888214 155.25044128 237.49448303 154.61679077 236.5317688 C147.91583369 226.35145392 141.20798597 216.17568415 134.5 206 C124.60697843 190.99206842 114.71819544 175.98135423 104.83300781 160.96826172 C96.05906021 147.64305341 87.28070554 134.320756 78.5 121 C69.71754754 107.67659383 60.93745624 94.35163956 52.16177368 81.02377319 C42.51987109 66.38039813 32.87676529 51.73781557 23.22998047 37.09765625 C21.9702628 35.18578528 20.71065649 33.27384092 19.45117188 31.36181641 C18.26119687 29.55535219 17.07104706 27.7490031 15.88070679 25.94277954 C14.76238175 24.24566469 13.64454659 22.54822691 12.5272522 20.85043335 C10.16913712 17.2707433 7.80356518 13.69754058 5.39599609 10.15087891 C4.66074707 9.06597168 3.92549805 7.98106445 3.16796875 6.86328125 C2.54559326 5.95489502 1.92321777 5.04650879 1.28198242 4.1105957 C0 2 0 2 0 0 Z " fill="#000" transform="translate(1302,67)"/>
</svg>
