<?xml version="1.0" encoding="UTF-8"?>
<svg version="1.1" xmlns="http://www.w3.org/2000/svg" width="200" height="184">
<path d="M0 0 C1.19484009 0.01135986 1.19484009 0.01135986 2.41381836 0.02294922 C12.62782097 0.306873 21.50434274 3.75197479 29.3125 10.4375 C31.91467123 13.88155015 32.54554737 16.46830639 32.375 20.6875 C31.38172634 27.29444392 27.36512315 32.63606582 23.4921875 37.921875 C22.03563873 40.36911008 22.03563873 40.36911008 22.84375 42.9296875 C24.54855761 45.84055581 26.49990595 48.10724592 28.8125 50.5625 C31.22698108 53.14160479 33.34984407 55.49351611 35.3125 58.4375 C35.9725 58.4375 36.6325 58.4375 37.3125 58.4375 C38.54915495 57.01816904 38.54915495 57.01816904 39.73828125 55.15625 C40.20556641 54.47949219 40.67285156 53.80273438 41.15429688 53.10546875 C42.1310875 51.66557818 43.09992847 50.22026109 44.06054688 48.76953125 C47.6880759 43.55899024 47.6880759 43.55899024 51.04296875 42.90625 C53.3125 43.4375 53.3125 43.4375 55.3125 44.4375 C55.68375 43.65375 56.055 42.87 56.4375 42.0625 C58.3125 39.4375 58.3125 39.4375 61.1875 37.875 C64.3125 37.4375 64.3125 37.4375 66.9375 38.8125 C69.87633306 42.06068391 71.57778285 45.4447432 73.3125 49.4375 C76.84786374 42.52698196 76.84786374 42.52698196 80 35.4375 C81.3125 32.4375 81.3125 32.4375 83.3125 30.4375 C85.9375 30.3125 85.9375 30.3125 88.3125 30.4375 C89.3025 33.4075 89.3025 33.4075 90.3125 36.4375 C90.76689453 35.69693359 90.76689453 35.69693359 91.23046875 34.94140625 C94.65577969 29.70331536 94.65577969 29.70331536 97.9375 28.375 C100.3125 28.4375 100.3125 28.4375 103.3125 30.4375 C103.82421875 32.6015625 103.82421875 32.6015625 104 35.0625 C104.06574219 35.87976562 104.13148438 36.69703125 104.19921875 37.5390625 C104.25529297 38.47878906 104.25529297 38.47878906 104.3125 39.4375 C106.1112144 35.61523189 106.7616436 32.65944982 106.3125 28.4375 C105.33221384 27.08960653 104.33278865 25.75537285 103.3125 24.4375 C102.75 22 102.75 22 103.3125 19.4375 C107.66837108 15.22366819 112.01249088 12.97868783 117.625 10.8125 C118.38047119 10.51327637 119.13594238 10.21405273 119.91430664 9.90576172 C122.04217343 9.06965844 124.17595595 8.25111647 126.3125 7.4375 C127.22257813 7.08171875 128.13265625 6.7259375 129.0703125 6.359375 C134.67499656 4.31035072 141.76675395 2.10241173 147.54296875 4.27734375 C149.3125 5.4375 149.3125 5.4375 150.3125 7.8125 C150.3125 10.4375 150.3125 10.4375 148.5 12.6875 C144.95151928 15.52628458 142.8244611 15.62549838 138.3125 15.4375 C137.3225 14.9425 137.3225 14.9425 136.3125 14.4375 C133.67996777 15.1103894 131.14247746 15.85062559 128.5625 16.6875 C127.85867187 16.90535156 127.15484375 17.12320312 126.4296875 17.34765625 C122.17272245 18.70070648 118.26587298 20.32406161 114.3125 22.4375 C114.79396484 23.28441406 114.79396484 23.28441406 115.28515625 24.1484375 C117.46441506 29.00412443 117.08288099 34.20912524 115.3671875 39.171875 C113.16055227 43.86270963 111.04283482 47.95970557 106.3125 50.4375 C102.49088012 50.90682174 100.31198078 51.12673631 97.09765625 48.91015625 C96.50855469 48.42417969 95.91945313 47.93820313 95.3125 47.4375 C94.70921875 48.14777344 94.1059375 48.85804687 93.484375 49.58984375 C92.68515625 50.50894531 91.8859375 51.42804687 91.0625 52.375 C89.87914063 53.74978516 89.87914063 53.74978516 88.671875 55.15234375 C85.37811588 58.34249124 85.37811588 58.34249124 82.3125 58.4375 C80.8275 57.4475 80.8275 57.4475 79.3125 56.4375 C78.1678125 57.6440625 78.1678125 57.6440625 77 58.875 C74.3125 61.4375 74.3125 61.4375 71.3125 62.4375 C66.4997486 60.58644177 65.04180884 57.53539094 63.01171875 53.08203125 C62.66560547 52.26798828 62.66560547 52.26798828 62.3125 51.4375 C61.93738281 52.48550781 61.56226562 53.53351562 61.17578125 54.61328125 C60.65973984 55.9925192 60.14276337 57.37140755 59.625 58.75 C59.38072266 59.44029297 59.13644531 60.13058594 58.88476562 60.84179688 C57.52375259 64.4079956 56.76830298 66.10403375 53.60546875 68.41796875 C52.84878906 68.75441406 52.09210938 69.09085937 51.3125 69.4375 C46.4375 66.8125 46.4375 66.8125 45.3125 63.4375 C43.14608335 65.10295339 43.14608335 65.10295339 41.3125 67.4375 C41.6602043 69.8088917 41.6602043 69.8088917 42.3125 72.4375 C43.37794416 86.92344275 38.95854416 98.91250398 29.67333984 110.07714844 C20.60286815 120.39411839 9.48870645 126.54485031 -4.25 127.75 C-9.91071373 127.23538966 -14.09428268 125.74747869 -18.5 122.125 C-22.52522741 117.17972061 -24.28032916 113.15005123 -24.03515625 106.796875 C-23.15316435 100.81122208 -20.4158516 96.18837039 -16.5 91.6875 C-13.85220496 88.30787593 -13.34474893 86.01700102 -13.2109375 81.75390625 C-12.72472576 73.37889447 -11.14142765 65.33441291 -9.5 57.125 C-9.26914703 55.95168625 -9.26914703 55.95168625 -9.03363037 54.75466919 C-3.12571803 24.7521541 -3.12571803 24.7521541 1.3125 11.4375 C-0.02554688 11.48970703 -0.02554688 11.48970703 -1.390625 11.54296875 C-2.56109375 11.57003906 -3.7315625 11.59710938 -4.9375 11.625 C-6.09765625 11.65980469 -7.2578125 11.69460938 -8.453125 11.73046875 C-11.91018407 11.41732934 -13.20315563 10.78040892 -15.6875 8.4375 C-15.5625 6.125 -15.5625 6.125 -14.6875 3.4375 C-9.81230468 0.25308004 -5.63262922 -0.07474579 0 0 Z M12.3125 12.4375 C5.20721038 37.66933211 5.20721038 37.66933211 -0.75 63.1875 C-0.94102295 64.11175781 -1.1320459 65.03601563 -1.32885742 65.98828125 C-2.41114516 71.45625358 -3.14288116 76.89024832 -3.6875 82.4375 C1.19688472 80.57725572 5.89937512 78.3499051 10.625 76.125 C11.84993164 75.55749023 11.84993164 75.55749023 13.09960938 74.97851562 C18.41952253 72.47328162 23.40271408 69.67355325 28.3125 66.4375 C26.435006 62.41367788 23.78248415 59.31688217 20.875 56 C12.7019139 46.66700155 12.7019139 46.66700155 11.95703125 42.40234375 C12.50383856 35.8025067 15.58211235 31.55821353 19.5 26.33203125 C21.42476263 23.25821852 21.97310917 21.01701265 22.3125 17.4375 C18.96121128 14.46921571 16.70954421 13.13954908 12.3125 12.4375 Z M23.125 79.4375 C18.88033865 81.87676154 14.64524796 84.30190542 10.26953125 86.5 C-2.60387636 92.81996751 -2.60387636 92.81996751 -11.6875 103.4375 C-11.9612932 105.77448675 -11.9612932 105.77448675 -12 108.375 C-12.03738281 109.25027344 -12.07476562 110.12554687 -12.11328125 111.02734375 C-11.89727917 113.54653686 -11.89727917 113.54653686 -9.98828125 115.22265625 C-5.69430316 117.489935 -1.40092403 117.0839483 3.3125 116.4375 C14.23344244 113.02779399 22.66300097 104.56974828 28.15625 94.796875 C30.44424329 90.12813194 31.59308242 86.3486667 31.9375 81.125 C32.01226562 80.05636719 32.08703125 78.98773438 32.1640625 77.88671875 C32.21304688 77.07847656 32.26203125 76.27023438 32.3125 75.4375 C28.86331806 75.4375 26.05066987 77.7433665 23.125 79.4375 Z " fill="#000" transform="translate(36.6875,-0.4375)"/>
<path d="M0 0 C4.62 0 9.24 0 14 0 C14.99 2.64 15.98 5.28 17 8 C18.32 5.36 19.64 2.72 21 0 C26.61 0 32.22 0 38 0 C38 3.63 38 7.26 38 11 C39.98 11 41.96 11 44 11 C44 11.99 44 12.98 44 14 C37.07 14 30.14 14 23 14 C22.67 11.03 22.34 8.06 22 5 C20.68 7.97 19.36 10.94 18 14 C17.01 14 16.02 14 15 14 C14.3291288 12.3767313 13.66342971 10.75132422 13 9.125 C12.62875 8.22007812 12.2575 7.31515625 11.875 6.3828125 C11 4 11 4 11 2 C8.69 2.33 6.38 2.66 4 3 C4 3.66 4 4.32 4 5 C6.31 5 8.62 5 11 5 C11 5.66 11 6.32 11 7 C9.02 7.33 7.04 7.66 5 8 C4.67 8.99 4.34 9.98 4 11 C6.31 11 8.62 11 11 11 C10.67 11.99 10.34 12.98 10 14 C6.7 14 3.4 14 0 14 C0 9.38 0 4.76 0 0 Z M27 3 C27 3.66 27 4.32 27 5 C29.31 5 31.62 5 34 5 C34 4.01 34 3.02 34 2 C31.57202689 2 29.37092995 2.50085685 27 3 Z M27 7 C27 8.32 27 9.64 27 11 C29.31 11 31.62 11 34 11 C34 9.35 34 7.7 34 6 C31.66140564 6 29.29969577 6.60856242 27 7 Z " fill="#000" transform="translate(67,143)"/>
<path d="M0 0 C0.99 0 1.98 0 3 0 C3.33 0.99 3.66 1.98 4 3 C6.97 3.495 6.97 3.495 10 4 C10.33 5.65 10.66 7.3 11 9 C11.66 9 12.32 9 13 9 C13.08886184 5.80097361 12.91058531 3.07322544 12 0 C13.98 0 15.96 0 18 0 C18 0.99 18 1.98 18 3 C17.34 3 16.68 3 16 3 C16 4.98 16 6.96 16 9 C16.99 9 17.98 9 19 9 C19 6.03 19 3.06 19 0 C19.99 0 20.98 0 22 0 C22 2.97 22 5.94 22 9 C22.66 9 23.32 9 24 9 C24 6.03 24 3.06 24 0 C24.99 0 25.98 0 27 0 C27 3.96 27 7.92 27 12 C17.43 12 7.86 12 -2 12 C-2.33 12.99 -2.66 13.98 -3 15 C-4.98 15 -6.96 15 -9 15 C-9.2226746 13.56465159 -9.42761906 12.12654475 -9.625 10.6875 C-9.74101563 9.88699219 -9.85703125 9.08648437 -9.9765625 8.26171875 C-10 6 -10 6 -8 3 C-4.875 2.8125 -4.875 2.8125 -2 3 C-2 4.98 -2 6.96 -2 9 C-1.34 9 -0.68 9 0 9 C0 6.03 0 3.06 0 0 Z M-7 6 C-7 6.99 -7 7.98 -7 9 C-6.34 9 -5.68 9 -5 9 C-5 8.01 -5 7.02 -5 6 C-5.66 6 -6.32 6 -7 6 Z M3 7 C3 7.66 3 8.32 3 9 C4.65 9 6.3 9 8 9 C7.67 8.01 7.34 7.02 7 6 C4.9254644 5.8509288 4.9254644 5.8509288 3 7 Z " fill="#000" transform="translate(87,166)"/>
<path d="M0 0 C12.77378436 -0.8435518 12.77378436 -0.8435518 16.265625 1.55859375 C17.71744065 3.30993447 18.92682301 4.99673629 20 7 C20.33 4.69 20.66 2.38 21 0 C25.95 0 30.9 0 36 0 C35.67 0.99 35.34 1.98 35 3 C34.01 3 33.02 3 32 3 C32 6.63 32 10.26 32 14 C30.68 14 29.36 14 28 14 C28 10.37 28 6.74 28 3 C26.68 3 25.36 3 24 3 C23.67 6.63 23.34 10.26 23 14 C19.43688534 12.21844267 17.64354525 10.83236991 15 8 C14.67 9.98 14.34 11.96 14 14 C13.01 14 12.02 14 11 14 C11 10.04 11 6.08 11 2 C8.69 2.33 6.38 2.66 4 3 C4 3.66 4 4.32 4 5 C5.98 5 7.96 5 10 5 C10 5.66 10 6.32 10 7 C8.35 7.33 6.7 7.66 5 8 C4.67 8.99 4.34 9.98 4 11 C5.98 11 7.96 11 10 11 C10 11.99 10 12.98 10 14 C6.7 14 3.4 14 0 14 C0 9.38 0 4.76 0 0 Z " fill="#000" transform="translate(154,143)"/>
<path d="M0 0 C1.32 0 2.64 0 4 0 C4 2.64 4 5.28 4 8 C4.66 8.33 5.32 8.66 6 9 C6 7.02 6 5.04 6 3 C6.99 3 7.98 3 9 3 C9 4.98 9 6.96 9 9 C10.32 9 11.64 9 13 9 C13 8.01 13 7.02 13 6 C12.01 6 11.02 6 10 6 C10 5.01 10 4.02 10 3 C14.875 3.875 14.875 3.875 16 5 C16.04092937 7.33297433 16.04241723 9.66705225 16 12 C13.69 12 11.38 12 9 12 C9 12.99 9 13.98 9 15 C8.01 15 7.02 15 6 15 C6 14.01 6 13.02 6 12 C3.69 12 1.38 12 -1 12 C-1 12.99 -1 13.98 -1 15 C-6 15 -11 15 -16 15 C-15.67 14.01 -15.34 13.02 -15 12 C-14.34 12 -13.68 12 -13 12 C-13.99 11.34 -14.98 10.68 -16 10 C-16.3125 7.5 -16.3125 7.5 -16 5 C-14 3 -14 3 -10.875 2.875 C-9.92625 2.91625 -8.9775 2.9575 -8 3 C-8 4.98 -8 6.96 -8 9 C-7.01 9 -6.02 9 -5 9 C-5 7.02 -5 5.04 -5 3 C-4.01 3 -3.02 3 -2 3 C-2 4.98 -2 6.96 -2 9 C-1.34 8.67 -0.68 8.34 0 8 C0 5.36 0 2.72 0 0 Z M-13 6 C-13 6.99 -13 7.98 -13 9 C-12.34 9 -11.68 9 -11 9 C-11 8.01 -11 7.02 -11 6 C-11.66 6 -12.32 6 -13 6 Z " fill="#000" transform="translate(134,166)"/>
<path d="M0 0 C1.32 0 2.64 0 4 0 C4 2.64 4 5.28 4 8 C5.41377341 5.36095629 6.37240135 2.92879371 7 0 C8.98 0 10.96 0 13 0 C13.33 2.97 13.66 5.94 14 9 C14.66 8.67 15.32 8.34 16 8 C15.67 6.68 15.34 5.36 15 4 C21.75 2.875 21.75 2.875 24 4 C24 5.32 24 6.64 24 8 C24.66 8.33 25.32 8.66 26 9 C26 6.03 26 3.06 26 0 C26.99 0 27.98 0 29 0 C29 3.96 29 7.92 29 12 C25.03069011 12.02465881 21.06140966 12.04284023 17.09204102 12.05493164 C15.74079614 12.05997057 14.38955674 12.06680177 13.03833008 12.07543945 C11.09979566 12.08752419 9.161222 12.09269828 7.22265625 12.09765625 C5.47094116 12.10551147 5.47094116 12.10551147 3.68383789 12.11352539 C1 12 1 12 0 11 C-0.07226502 9.14712498 -0.0838122 7.29166122 -0.0625 5.4375 C-0.05347656 4.42558594 -0.04445313 3.41367188 -0.03515625 2.37109375 C-0.02355469 1.58863281 -0.01195313 0.80617187 0 0 Z M9 6 C9 6.99 9 7.98 9 9 C9.66 9 10.32 9 11 9 C11 8.01 11 7.02 11 6 C10.34 6 9.68 6 9 6 Z M18 6 C18.33 6.66 18.66 7.32 19 8 C19.66 8 20.32 8 21 8 C21 7.34 21 6.68 21 6 C20.01 6 19.02 6 18 6 Z " fill="#000" transform="translate(29,166)"/>
<path d="M0 0 C1.8125 0.0625 1.8125 0.0625 4 1 C5.75 4.5625 5.75 4.5625 7 8 C7.98120464 4.94736336 7.98120464 3.05263664 7 0 C8.32 0 9.64 0 11 0 C12.32 2.64 13.64 5.28 15 8 C16.32 5.36 17.64 2.72 19 0 C19.66 0 20.32 0 21 0 C19.45730076 4.72065967 17.92205381 9.41664092 16 14 C14.125 13.75 14.125 13.75 12 13 C10.75 10.9375 10.75 10.9375 10 9 C9.34 10.65 8.68 12.3 8 14 C6.140625 13.8046875 6.140625 13.8046875 4 13 C2.734375 10.8203125 2.734375 10.8203125 1.75 8.125 C1.41484375 7.24070313 1.0796875 6.35640625 0.734375 5.4453125 C0 3 0 3 0 0 Z " fill="#000" transform="translate(25,143)"/>
<path d="M0 0 C0.99 0 1.98 0 3 0 C5.1875 3 5.1875 3 7 6 C7.5775 5.195625 8.155 4.39125 8.75 3.5625 C11 1 11 1 15 0 C15 4.62 15 9.24 15 14 C13.68 14 12.36 14 11 14 C10.67 12.35 10.34 10.7 10 9 C9.34 10.32 8.68 11.64 8 13 C7.34 13 6.68 13 6 13 C5.34 12.01 4.68 11.02 4 10 C3.67 11.32 3.34 12.64 3 14 C2.01 14 1.02 14 0 14 C0 9.38 0 4.76 0 0 Z " fill="#000" transform="translate(138,143)"/>
<path d="M0 0 C1.4540625 0.0309375 1.4540625 0.0309375 2.9375 0.0625 C2.9375 1.0525 2.9375 2.0425 2.9375 3.0625 C1.9475 3.5575 1.9475 3.5575 0.9375 4.0625 C1.9275 5.0525 2.9175 6.0425 3.9375 7.0625 C4.2675 4.7525 4.5975 2.4425 4.9375 0.0625 C5.9275 0.0625 6.9175 0.0625 7.9375 0.0625 C7.9375 3.6925 7.9375 7.3225 7.9375 11.0625 C4.12458349 11.8250833 1.07237696 12.22392649 -2.75 12.25 C-3.70261719 12.26417969 -4.65523437 12.27835938 -5.63671875 12.29296875 C-8.0625 12.0625 -8.0625 12.0625 -10.0625 10.0625 C-10.1875 7.4375 -10.1875 7.4375 -10.0625 5.0625 C-9.0725 5.0625 -8.0825 5.0625 -7.0625 5.0625 C-7.0625 6.3825 -7.0625 7.7025 -7.0625 9.0625 C-5.06295254 9.10504356 -3.06208364 9.10330783 -1.0625 9.0625 C-0.7325 8.7325 -0.4025 8.4025 -0.0625 8.0625 C-1.7125 7.0725 -3.3625 6.0825 -5.0625 5.0625 C-3.9375 0.08035714 -3.9375 0.08035714 0 0 Z " fill="#000" transform="translate(20.0625,168.9375)"/>
<path d="M0 0 C8.11111111 0 8.11111111 0 11 2 C12.42041821 4.84083641 12.31452272 6.85477278 12 10 C10.5 12.375 10.5 12.375 8 14 C5.24150058 14.32638734 2.79515088 14.18634339 0 14 C0 9.38 0 4.76 0 0 Z M4 3 C4 5.97 4 8.94 4 12 C5.32 11.67 6.64 11.34 8 11 C9.01540112 6.89776415 9.01540112 6.89776415 8 3 C6.68 3 5.36 3 4 3 Z " fill="#000" transform="translate(54,143)"/>
<path d="M0 0 C7 0 7 0 10 2 C10.125 4.3125 10.125 4.3125 10 7 C10.20625 7.886875 10.4125 8.77375 10.625 9.6875 C10.74875 10.450625 10.8725 11.21375 11 12 C9 14 9 14 6.8359375 14.1953125 C4.55729167 14.13020833 2.27864583 14.06510417 0 14 C0 9.38 0 4.76 0 0 Z M3 3 C3 3.99 3 4.98 3 6 C4.32 5.67 5.64 5.34 7 5 C7 4.34 7 3.68 7 3 C5.68 3 4.36 3 3 3 Z M3 8 C3 9.32 3 10.64 3 12 C4.65 11.67 6.3 11.34 8 11 C7.67 10.01 7.34 9.02 7 8 C5.68 8 4.36 8 3 8 Z " fill="#000" transform="translate(0,143)"/>
<path d="M0 0 C7.23809524 -0.36190476 7.23809524 -0.36190476 10.5 1.1875 C12 3 12 3 12.4375 5.5 C12 8 12 8 10.8125 9.8125 C8.44017475 11.36678206 6.77958655 11.22537188 4 11 C4 11.99 4 12.98 4 14 C2.68 14 1.36 14 0 14 C0 9.38 0 4.76 0 0 Z M4 3 C4 4.98 4 6.96 4 9 C5.65 8.34 7.3 7.68 9 7 C8.67 5.68 8.34 4.36 8 3 C6.68 3 5.36 3 4 3 Z " fill="#000" transform="translate(125,143)"/>
<path d="M0 0 C5.14860706 1.28715177 5.86461447 2.90658001 9 7 C9.33 4.69 9.66 2.38 10 0 C10.66 0 11.32 0 12 0 C12 4.62 12 9.24 12 14 C8.43688534 12.21844267 6.64354525 10.83236991 4 8 C3.67 9.98 3.34 11.96 3 14 C2.01 14 1.02 14 0 14 C0 9.38 0 4.76 0 0 Z " fill="#000" transform="translate(12,143)"/>
<path d="M0 0 C3.4375 0.8125 3.4375 0.8125 5.4375 3.8125 C6.09704774 9.96827889 6.09704774 9.96827889 3.875 12.8125 C0.31328939 14.27371461 -1.90045629 13.87782181 -5.5625 12.8125 C-7.625 10.625 -7.625 10.625 -8.5625 7.8125 C-7.9375 4.625 -7.9375 4.625 -6.5625 1.8125 C-3.5625 -0.1875 -3.5625 -0.1875 0 0 Z M-4.5625 3.8125 C-4.27519945 6.15194736 -3.94313221 8.4864143 -3.5625 10.8125 C-2.5725 11.1425 -1.5825 11.4725 -0.5625 11.8125 C0.4275 11.1525 1.4175 10.4925 2.4375 9.8125 C2.1075 7.5025 1.7775 5.1925 1.4375 2.8125 C-1.85180404 2.44564303 -1.85180404 2.44564303 -4.5625 3.8125 Z " fill="#000" transform="translate(118.5625,143.1875)"/>
<path d="M0 0 C0.928125 0.20625 1.85625 0.4125 2.8125 0.625 C2.8125 1.945 2.8125 3.265 2.8125 4.625 C0.8325 3.965 -1.1475 3.305 -3.1875 2.625 C-3.1875 3.285 -3.1875 3.945 -3.1875 4.625 C-2.40375 4.74875 -1.62 4.8725 -0.8125 5 C1.8125 5.625 1.8125 5.625 3.8125 7.625 C4 10.1875 4 10.1875 3.8125 12.625 C2.8125 13.625 2.8125 13.625 -0.75 13.6875 C-1.884375 13.666875 -3.01875 13.64625 -4.1875 13.625 C-4.8475 12.305 -5.5075 10.985 -6.1875 9.625 C-3.08198334 9.625 -1.83488916 10.1643715 0.8125 11.625 C-1.31530579 9.28441363 -3.30312221 7.91799694 -6.1875 6.625 C-6.375 4.25 -6.375 4.25 -6.1875 1.625 C-3.1875 -0.375 -3.1875 -0.375 0 0 Z " fill="#000" transform="translate(196.1875,143.375)"/>
<path d="M0 0 C0.99 0 1.98 0 3 0 C3.29243524 2.92435236 3.50021824 5.15093088 3 8 C-0.44016501 11.62122633 -3.43165293 12.24930399 -8.25 12.375 C-12.69230769 12.30769231 -12.69230769 12.30769231 -15 10 C-14.625 7.375 -14.625 7.375 -14 5 C-13.01 5 -12.02 5 -11 5 C-11.33 6.32 -11.66 7.64 -12 9 C-9.69 9.33 -7.38 9.66 -5 10 C-5 9.34 -5 8.68 -5 8 C-5.66 8 -6.32 8 -7 8 C-7 7.34 -7 6.68 -7 6 C-4.69 6 -2.38 6 0 6 C0 4.02 0 2.04 0 0 Z " fill="#000" transform="translate(187,169)"/>
<path d="M0 0 C0.99 0 1.98 0 3 0 C3 1.98 3 3.96 3 6 C3.99 6 4.98 6 6 6 C6 4.02 6 2.04 6 0 C6.99 0 7.98 0 9 0 C9 3.96 9 7.92 9 12 C7.35 12 5.7 12 4 12 C4 11.01 4 10.02 4 9 C3.34 9 2.68 9 2 9 C1.67 9.99 1.34 10.98 1 12 C-0.32 12 -1.64 12 -3 12 C-3 11.34 -3 10.68 -3 10 C-2.34 9.67 -1.68 9.34 -1 9 C-0.53348793 6.87423218 -0.53348793 6.87423218 -0.375 4.4375 C-0.30023438 3.61121094 -0.22546875 2.78492188 -0.1484375 1.93359375 C-0.09945312 1.29550781 -0.05046875 0.65742188 0 0 Z " fill="#000" transform="translate(68,169)"/>
<path d="M0 0 C0.99 0 1.98 0 3 0 C3.05395478 1.62463842 3.09277195 3.24978541 3.125 4.875 C3.14820313 5.77992188 3.17140625 6.68484375 3.1953125 7.6171875 C3 10 3 10 1 12 C-2 12.25 -2 12.25 -5 12 C-7 10 -7 10 -7.125 6.375 C-7.08375 5.26125 -7.0425 4.1475 -7 3 C-5.68 3 -4.36 3 -3 3 C-3.33 4.98 -3.66 6.96 -4 9 C-2.68 9 -1.36 9 0 9 C0 6.03 0 3.06 0 0 Z " fill="#000" transform="translate(161,169)"/>
<path d="M0 0 C0.99 0 1.98 0 3 0 C3 3.96 3 7.92 3 12 C2.01 12 1.02 12 0 12 C0 8.04 0 4.08 0 0 Z " fill="#000" transform="translate(165,166)"/>
<path d="M0 0 C0.99 0 1.98 0 3 0 C3 3.96 3 7.92 3 12 C2.01 12 1.02 12 0 12 C0 8.04 0 4.08 0 0 Z " fill="#000" transform="translate(59,166)"/>
<path d="M0 0 C1.98 0 3.96 0 6 0 C6 0.66 6 1.32 6 2 C4.02 2 2.04 2 0 2 C0 1.34 0 0.68 0 0 Z " fill="#000" transform="translate(176,182)"/>
<path d="M0 0 C1.98 0 3.96 0 6 0 C6 0.66 6 1.32 6 2 C4.02 2 2.04 2 0 2 C0 1.34 0 0.68 0 0 Z " fill="#000" transform="translate(14,182)"/>
<path d="M0 0 C1.32 0 2.64 0 4 0 C3.67 0.99 3.34 1.98 3 3 C2.01 3 1.02 3 0 3 C0 2.01 0 1.02 0 0 Z " fill="#000" transform="translate(157,167)"/>
<path d="M0 0 C0.66 0 1.32 0 2 0 C2 0.99 2 1.98 2 3 C1.01 3 0.02 3 -1 3 C-0.67 2.01 -0.34 1.02 0 0 Z " fill="#000" transform="translate(188,178)"/>
<path d="" fill="#000" transform="translate(0,0)"/>
</svg>
