<svg xmlns="http://www.w3.org/2000/svg" width="197.46" height="130.54" viewBox="0 0 197.46 130.54"><title>DP-en-white</title><path d="M6.23,107.77a37.48,37.48,0,0,0-6.05.46V130h5v-7.24c.74.07,1.44.11,2.21.11,5.42,0,8.91-3,8.91-7.7C16.3,110.22,12.56,107.77,6.23,107.77Zm.21,12.59a7.64,7.64,0,0,1-1.26-.1v-10a6,6,0,0,1,1.05-.07c3.64,0,5.07,2,5.07,5S9.87,120.36,6.44,120.36Zm30.61-5.73c0-4.34-3.08-6.86-10-6.86a43.46,43.46,0,0,0-6,.46V130h5v-8.43a18.15,18.15,0,0,0,2,.11h.06L32.93,130h5.45l-5.77-9.2A6.66,6.66,0,0,0,37.05,114.63Zm-10,4.51A5.91,5.91,0,0,1,26,119v-8.77a7.37,7.37,0,0,1,1.26-.07c3.25,0,4.82,1.64,4.82,4.3C32.05,116.9,30.48,119.14,27.05,119.14Zm26-11.58c-6.54,0-11.33,4.76-11.33,11.75,0,7.45,4.4,11.23,11,11.23S64,125.78,64,118.79C64,111.34,59.57,107.56,53,107.56Zm-.25,20.29c-3.74,0-5.77-4-5.77-8.85s2.34-8.74,5.91-8.74c3.78,0,5.77,4,5.77,8.84S56.32,127.85,52.75,127.85Zm23-20.08a37.38,37.38,0,0,0-6,.46V130h5v-7.24c.73.07,1.43.11,2.2.11,5.42,0,8.92-3,8.92-7.7C85.78,110.22,82,107.77,75.71,107.77Zm.21,12.59a7.64,7.64,0,0,1-1.26-.1v-10a6,6,0,0,1,1-.07c3.64,0,5.07,2,5.07,5S79.35,120.36,75.92,120.36Zm19.52,6.86v-6.93H96c2.06,0,4.23,0,6.36.14v-3c-2.13.1-4.3.13-6.36.13h-.6v-6.71h2.28a57,57,0,0,1,6.4.28v-3H90.48V130h13.81v-3.11a49.44,49.44,0,0,1-6.4.35Zm30.36-12.59c0-4.34-3.08-6.86-10-6.86a43.46,43.46,0,0,0-6,.46V130h5v-8.43a18,18,0,0,0,2,.11h.07l4.87,8.32h5.45l-5.77-9.2A6.66,6.66,0,0,0,125.8,114.63Zm-10,4.51a5.91,5.91,0,0,1-1.08-.11v-8.77a7.31,7.31,0,0,1,1.25-.07c3.26,0,4.83,1.64,4.83,4.3C120.8,116.9,119.23,119.14,115.8,119.14Zm13.73-8a44.33,44.33,0,0,1,5.42-.31h.8V130h5V110.82h.76a44.53,44.53,0,0,1,5.46.31v-3H129.53Zm22,18.85h5V108.12h-5Zm16.94-2.76v-6.93h.6c2.06,0,4.23,0,6.36.14v-3c-2.13.1-4.3.13-6.36.13h-.6v-6.71h2.27a56.81,56.81,0,0,1,6.4.28v-3H163.49V130H177.3v-3.11a49.44,49.44,0,0,1-6.4.35Zm24.78-9.66-3.29-1.67c-2-1-3-1.72-3-3.19s1.44-2.41,3.4-2.41a9.35,9.35,0,0,1,5.28,1.61l1.32-2.55a11.38,11.38,0,0,0-6.6-1.79c-4.38,0-8.19,2.24-8.19,6.3,0,3,1.47,4.61,4.16,6l3,1.54c2.38,1.19,3.5,2,3.5,3.6,0,1.79-1.78,2.66-3.85,2.66a8.54,8.54,0,0,1-5.52-2.13l-1.61,2.55a11,11,0,0,0,7.2,2.45c5,0,8.39-2.55,8.39-6.72C197.42,121.2,196.24,119.14,193.23,117.56Z" fill="#000"/><polygon points="186.88 0 154.69 38.15 135.72 20.45 155.39 54.53 186.88 0" fill="#d92d27"/><path d="M11.71,54.83A77.57,77.57,0,0,0,0,55.57v35.2a79.13,79.13,0,0,0,11.77.74c17.58,0,23.87-9.48,23.87-18.79C35.64,61.87,28.48,54.83,11.71,54.83Zm.69,32.48a24.9,24.9,0,0,1-3.55-.23V59.2a28.89,28.89,0,0,1,3.49-.28c9.53,0,14,5.45,14,14C26.29,80.55,22.06,87.31,12.4,87.31Zm62.26-11.7c0,7.5-3,11-8.91,11-6.36,0-8.41-4.94-8.41-12.38V55.4H48.43V76.29c0,9.54,4.73,15.51,16.07,15.51,11.59,0,16.39-6.71,16.39-16.47V55.4H74.66ZM117.33,72c4.3-1.42,6.54-4.54,6.54-8,0-6.87-7-9.2-16.76-9.2a69.64,69.64,0,0,0-10.71.74v35.2a98.87,98.87,0,0,0,12.15.74c10.59,0,17.5-3.75,17.5-10.73C126.05,76.52,123.07,73.17,117.33,72ZM105.18,58.86a19.47,19.47,0,0,1,2.68-.17c4.8,0,7.54,2.16,7.54,5.62,0,4.15-2.87,6.19-7.73,6.19h-2.49Zm2.49,28.68a23.21,23.21,0,0,1-2.49-.18V74.42h2.49c6,0,9.47,2.16,9.47,6.24C117.14,85,114,87.54,107.67,87.54ZM188.55,55.4V90.89h8.91V55.4ZM134.41,90.89h6.78l12.49-23,12.52,23h10.18l-21-36.36Z" fill="#000"/></svg>