<?xml version="1.0" encoding="UTF-8"?>
<svg version="1.1" xmlns="http://www.w3.org/2000/svg" width="1127" height="449">
<path d="M0 0 C5.34695977 4.464212 10.31846816 9.1808263 15.23022461 14.11669922 C16.02128601 14.90761459 16.81234741 15.69852997 17.62738037 16.51341248 C20.22141442 19.10813889 22.81189602 21.7063811 25.40234375 24.3046875 C27.20816034 26.11237067 29.01419896 27.91983206 30.82044983 29.7270813 C35.07552727 33.98557671 39.32837186 38.24628943 43.58012348 42.50810444 C48.90073045 47.84102838 54.22477678 53.17051509 59.54882812 58.5 C69.03583902 67.99672316 78.51767353 77.4985944 88 87 C88.33 61.26 88.66 35.52 89 9 C95.27 9 101.54 9 108 9 C108 49.26 108 89.52 108 131 C106.68 131.33 105.36 131.66 104 132 C102.32088852 130.93612766 102.32088852 130.93612766 100.63372803 129.23500061 C99.98875366 128.59689957 99.3437793 127.95879852 98.67926025 127.30136108 C97.98298523 126.58710968 97.28671021 125.87285828 96.56933594 125.13696289 C95.82748047 124.39583755 95.085625 123.65471222 94.32128906 122.89112854 C91.86362075 120.42996715 89.42414861 117.95154764 86.984375 115.47265625 C85.28724363 113.766203 83.5890075 112.06084782 81.88970947 110.35655212 C77.41356149 105.86128567 72.95262786 101.35120766 68.49462891 96.83795166 C63.14617984 91.4294384 57.77914205 86.03937939 52.41519165 80.64624786 C44.26241307 72.44493287 36.13370145 64.22043524 28 56 C27.67 80.75 27.34 105.5 27 131 C21.06 131 15.12 131 9 131 C9.01160156 128.16929932 9.02320313 125.33859863 9.03515625 122.42211914 C9.06772602 113.05024246 9.05625841 103.67878784 9.02334595 94.30692387 C9.00474198 88.62678648 9.0007889 82.94743924 9.03076172 77.26733398 C9.05916307 71.78148983 9.04849981 66.29696284 9.01119995 60.81118584 C9.00377605 58.72252101 9.01022664 56.63375753 9.03103638 54.54518318 C9.68860174 41.57989612 9.68860174 41.57989612 3.98632812 30.5703125 C3.26453369 29.94141617 2.54273926 29.31251984 1.79907227 28.66456604 C0 27 0 27 -0.90820312 23.49975586 C-0.86630859 22.41573486 -0.82441406 21.33171387 -0.78125 20.21484375 C-0.75546875 19.02568359 -0.7296875 17.83652344 -0.703125 16.61132812 C-0.63609375 15.39896484 -0.5690625 14.18660156 -0.5 12.9375 C-0.46390625 11.69033203 -0.4278125 10.44316406 -0.390625 9.15820312 C-0.29695496 6.10221818 -0.16592878 3.0527704 0 0 Z " fill="#001D3F" transform="translate(423,204)"/>
<path d="M0 0 C13.62542733 11.24675104 19.16446272 28.21356092 21.3671875 45.15234375 C22.96178402 62.62737411 17.85764198 80.17401438 7.3671875 94.15234375 C6.77164063 94.96703125 6.17609375 95.78171875 5.5625 96.62109375 C-4.44260125 108.15722472 -18.91738754 112.70965503 -33.6328125 114.15234375 C-50.68769145 115.28933568 -67.24243635 111.13039346 -80.75390625 100.48046875 C-91.70467425 90.49029443 -98.69602237 74.50117586 -99.80981445 59.8190918 C-100.30508506 40.38120054 -98.60281538 22.22810928 -85.3203125 6.83984375 C-62.96523597 -16.37075151 -26.2473221 -18.41985661 0 0 Z M-68.6328125 16.15234375 C-78.83801437 28.64058854 -82.14518874 43.32154544 -80.6328125 59.15234375 C-78.45898149 71.14546825 -73.46575844 82.53472555 -63.6328125 90.15234375 C-53.51561582 96.47139018 -42.62679439 98.64924423 -30.83984375 96.6875 C-20.56017305 94.23719768 -12.74808351 89.50548923 -6.390625 81.01171875 C1.66927153 67.90095372 3.38876042 52.34608178 0.68359375 37.3671875 C-2.76176222 25.37277399 -8.9124689 15.04424382 -20.03515625 8.8046875 C-35.93586932 1.42315847 -56.08340975 3.50314456 -68.6328125 16.15234375 Z " fill="#001D3F" transform="translate(927.6328125,222.84765625)"/>
<path d="M0 0 C6.27 0 12.54 0 19 0 C19 40.26 19 80.52 19 122 C15 122 15 122 13.33650589 120.8286972 C12.51242296 119.99908352 12.51242296 119.99908352 11.67169189 119.15270996 C11.03513168 118.52164841 10.39857147 117.89058685 9.74272156 117.24040222 C9.05579727 116.53909683 8.36887299 115.83779144 7.66113281 115.11523438 C6.92903091 114.38371658 6.19692902 113.65219879 5.44264221 112.89851379 C3.01987145 110.47295147 0.61158309 108.03351789 -1.796875 105.59375 C-3.47180411 103.91136238 -5.14761727 102.22985445 -6.82427979 100.54919434 C-11.23900976 96.11917762 -15.64159766 91.67728077 -20.04180908 87.23284912 C-25.32160867 81.90497672 -30.61628875 76.59189733 -35.90849304 71.27635193 C-43.95048667 63.19554365 -51.97328262 55.09611263 -60 47 C-60.33 71.75 -60.66 96.5 -61 122 C-67.27 122 -73.54 122 -80 122 C-80 82.4 -80 42.8 -80 2 C-76.07732991 2.98066752 -75.32618216 3.29969276 -72.67169189 5.96754456 C-72.03513168 6.59998077 -71.39857147 7.23241699 -70.74272156 7.88401794 C-70.05579727 8.58172806 -69.36887299 9.27943817 -68.66113281 9.99829102 C-67.92903091 10.72995483 -67.19692902 11.46161865 -66.44264221 12.2154541 C-64.02229216 14.63789573 -61.61274381 17.07079377 -59.203125 19.50390625 C-57.52797781 21.18464805 -55.85216746 22.86472913 -54.17572021 24.54417419 C-49.76322041 28.96813327 -45.3598033 33.40102732 -40.95819092 37.83581543 C-35.6761202 43.15395627 -30.38288309 48.46098009 -25.09150696 53.76985931 C-17.05239791 61.83806891 -9.02764105 69.92030652 -1 78 C-0.67 52.26 -0.34 26.52 0 0 Z " fill="#001D3F" transform="translate(1073,213)"/>
<path d="M0 0 C3.57282703 2.72912329 4.3012641 4.28245713 6.05859375 8.67578125 C2.42859375 12.30578125 -1.20140625 15.93578125 -4.94140625 19.67578125 C-6.26140625 18.76828125 -7.58140625 17.86078125 -8.94140625 16.92578125 C-20.31848475 9.3648388 -31.16830156 6.23577181 -44.94140625 7.67578125 C-55.6297341 10.15016741 -63.55001457 15.82007979 -69.94140625 24.67578125 C-77.34072656 38.69162223 -78.92889216 53.15914989 -74.98828125 68.53125 C-73.2829294 73.65366879 -70.85602279 78.14691554 -67.94140625 82.67578125 C-67.56242188 83.27132812 -67.1834375 83.866875 -66.79296875 84.48046875 C-61.43435843 91.81530416 -52.36734471 95.49807367 -43.74609375 97.078125 C-33.445491 98.55200546 -23.90410559 96.81668791 -14.8671875 91.69921875 C-12.94140625 90.67578125 -12.94140625 90.67578125 -10.94140625 90.67578125 C-10.94140625 84.07578125 -10.94140625 77.47578125 -10.94140625 70.67578125 C-19.52140625 70.67578125 -28.10140625 70.67578125 -36.94140625 70.67578125 C-36.94140625 65.06578125 -36.94140625 59.45578125 -36.94140625 53.67578125 C-22.42140625 53.67578125 -7.90140625 53.67578125 7.05859375 53.67578125 C7.31202857 60.08589012 7.53051939 66.47850777 7.6628418 72.88964844 C7.71799544 75.06668081 7.79294473 77.24330866 7.88842773 79.41894531 C8.66251205 97.51678826 8.66251205 97.51678826 4.70166016 102.84838867 C1.87918413 104.91678059 -0.71796861 106.33923393 -3.94140625 107.67578125 C-5.28124854 108.4352445 -6.6163817 109.20325147 -7.94140625 109.98828125 C-15.10562846 113.30613825 -23.07257529 115.1830461 -30.94140625 115.67578125 C-31.71355469 115.72863281 -32.48570312 115.78148437 -33.28125 115.8359375 C-49.91107347 116.41110433 -65.49224136 112.25523758 -78.37890625 101.42578125 C-90.97334804 89.20297873 -96.73624493 72.46348599 -97.22460938 55.20239258 C-97.46583839 35.94226616 -92.18929427 18.57336677 -78.77734375 4.38671875 C-58.10916243 -15.11294348 -22.82400926 -15.5680868 0 0 Z " fill="#001D3F" transform="translate(671.94140625,221.32421875)"/>
<path d="M0 0 C26.4 0 52.8 0 80 0 C80 5.28 80 10.56 80 16 C59.54 16 39.08 16 18 16 C18 28.21 18 40.42 18 53 C34.17 53 50.34 53 67 53 C67 58.61 67 64.22 67 70 C50.83 70 34.66 70 18 70 C18 81.55 18 93.1 18 105 C38.46 105 58.92 105 80 105 C80 110.61 80 116.22 80 122 C53.6 122 27.2 122 0 122 C0 81.74 0 41.48 0 0 Z " fill="#001D3F" transform="translate(19,213)"/>
<path d="M0 0 C0.08126109 2.72977064 0.14061663 5.4571017 0.1875 8.1875 C0.21263672 8.95642578 0.23777344 9.72535156 0.26367188 10.51757812 C0.27333984 11.26845703 0.28300781 12.01933594 0.29296875 12.79296875 C0.3086792 13.4789917 0.32438965 14.16501465 0.34057617 14.87182617 C-0.61164276 20.82199993 -5.53960992 24.80326257 -9.63671875 28.83203125 C-10.27615921 29.46864182 -10.91559967 30.10525238 -11.57441711 30.76115417 C-13.60744499 32.78303333 -15.64733362 34.79782668 -17.6875 36.8125 C-19.07142297 38.18638633 -20.45489168 39.56073039 -21.83789062 40.93554688 C-25.22002237 44.29568867 -28.60832238 47.64949505 -32 51 C-28.18635655 55.56810494 -24.23449058 59.88772864 -19.98046875 64.046875 C-18.86510729 65.14961105 -17.74987656 66.25247935 -16.63476562 67.35546875 C-14.90070704 69.06457507 -13.16506109 70.77201259 -11.42700195 72.47705078 C-9.73213526 74.14180863 -8.04346775 75.81265814 -6.35546875 77.484375 C-5.57117744 78.24847687 -5.57117744 78.24847687 -4.77104187 79.02801514 C-1.93848174 81.84068132 -0.13333196 83.76719142 0.11352539 87.90112305 C0.10567017 88.94586792 0.10567017 88.94586792 0.09765625 90.01171875 C0.09282227 91.14770508 0.09282227 91.14770508 0.08789062 92.30664062 C0.07532227 93.48516602 0.07532227 93.48516602 0.0625 94.6875 C0.05798828 95.48478516 0.05347656 96.28207031 0.04882812 97.10351562 C0.0370585 99.06904257 0.01912348 101.03453085 0 103 C-4.16566899 101.23760158 -6.21525743 99.15395214 -10 96 C-17.26 103.26 -24.52 110.52 -32 118 C-28.09108459 122.56040131 -24.2514174 126.87117932 -19.98046875 131.046875 C-18.86510729 132.14961105 -17.74987656 133.25247935 -16.63476562 134.35546875 C-14.90070704 136.06457507 -13.16506109 137.77201259 -11.42700195 139.47705078 C-9.73213526 141.14180863 -8.04346775 142.81265814 -6.35546875 144.484375 C-5.83260788 144.99377625 -5.30974701 145.50317749 -4.77104187 146.02801514 C-1.90076979 148.8781284 -0.12469819 150.81094337 0.11352539 154.99291992 C0.10567017 156.10050659 0.10567017 156.10050659 0.09765625 157.23046875 C0.09282227 158.43413086 0.09282227 158.43413086 0.08789062 159.66210938 C0.07532227 160.91217773 0.07532227 160.91217773 0.0625 162.1875 C0.05798828 163.03248047 0.05347656 163.87746094 0.04882812 164.74804688 C0.03705403 166.83206155 0.0191189 168.91603977 0 171 C-3.08339095 169.62401287 -5.20912431 168.04656399 -7.6007843 165.67337036 C-8.29768875 164.98644104 -8.9945932 164.29951172 -9.71261597 163.59176636 C-10.46656647 162.83848053 -11.22051697 162.0851947 -11.99731445 161.30908203 C-12.79929764 160.51542236 -13.60128082 159.7217627 -14.42756653 158.90405273 C-17.07829228 156.27743543 -19.72128358 153.64320712 -22.36328125 151.0078125 C-24.1983418 149.18171442 -26.03348181 147.35569618 -27.86869812 145.52975464 C-31.71315985 141.70178555 -35.55321617 137.86946095 -39.39086914 134.03466797 C-43.83030487 129.5988746 -48.28272295 125.17640786 -52.74119025 120.75975144 C-57.02889579 116.51085527 -61.30278926 112.24833897 -65.57170677 107.98055649 C-67.39097964 106.1655037 -69.21439486 104.35459343 -71.04192543 102.54785538 C-73.58974553 100.02673795 -76.12145608 97.49047562 -78.6496582 94.94970703 C-79.41372986 94.20046967 -80.17780151 93.4512323 -80.96502686 92.67929077 C-81.98923485 91.64043732 -81.98923485 91.64043732 -83.03413391 90.58059692 C-83.63455663 89.98218554 -84.23497934 89.38377415 -84.85359669 88.76722908 C-86 87 -86 87 -85.88897896 85.00321388 C-84.82938587 82.61554028 -83.5905529 81.21582162 -81.74220276 79.36798096 C-80.69691406 78.31217079 -80.69691406 78.31217079 -79.63050842 77.23503113 C-78.86113449 76.47330093 -78.09176056 75.71157074 -77.29907227 74.92675781 C-76.49259247 74.11662735 -75.68611267 73.30649689 -74.85519409 72.47181702 C-72.18295303 69.79145851 -69.49998847 67.12212504 -66.81640625 64.453125 C-64.96123526 62.59847239 -63.10658174 60.74330202 -61.25242615 58.88763428 C-57.36447475 54.99880022 -53.47058737 51.11598938 -49.57299805 47.23681641 C-45.06264615 42.74765401 -40.56121124 38.24970221 -36.06456143 33.74681783 C-31.74171129 29.41828057 -27.41317668 25.09548006 -23.08192253 20.77535248 C-21.23730654 18.93459765 -19.39405155 17.09247795 -17.55215645 15.24900055 C-14.98310796 12.67958318 -12.40768955 10.11673312 -9.83032227 7.55566406 C-9.06297256 6.78583694 -8.29562286 6.01600983 -7.50502014 5.22285461 C-6.45550171 4.18396339 -6.45550171 4.18396339 -5.38478088 3.12408447 C-4.77585275 2.51720921 -4.16692461 1.91033394 -3.53954411 1.28506851 C-2 0 -2 0 0 0 Z M-46.24658203 64.01953125 C-47.61339111 65.40205078 -47.61339111 65.40205078 -49.0078125 66.8125 C-49.49329559 67.30081299 -49.97877869 67.78912598 -50.47897339 68.29223633 C-52.03239131 69.85687218 -53.57872219 71.42831049 -55.125 73 C-56.17532261 74.06035033 -57.22609822 75.12025215 -58.27734375 76.1796875 C-60.85684416 78.78126956 -63.43003137 81.38899773 -66 84 C-64.4608199 87.66752005 -62.24514548 89.98580573 -59.4296875 92.765625 C-58.53378906 93.65507813 -57.63789063 94.54453125 -56.71484375 95.4609375 C-55.77769531 96.38132813 -54.84054687 97.30171875 -53.875 98.25 C-52.92011363 99.19484856 -51.96568141 100.14015633 -51.01171875 101.0859375 C-48.67890913 103.39518338 -46.34155914 105.69963203 -44 108 C-40.33247995 106.4608199 -38.01419427 104.24514548 -35.234375 101.4296875 C-34.34492188 100.53378906 -33.45546875 99.63789062 -32.5390625 98.71484375 C-31.61867188 97.77769531 -30.69828125 96.84054688 -29.75 95.875 C-28.80515144 94.92011363 -27.85984367 93.96568141 -26.9140625 93.01171875 C-24.60481662 90.67890913 -22.30036797 88.34155914 -20 86 C-21.53652003 82.36120325 -23.72420759 80.01785354 -26.5 77.234375 C-27.386875 76.34492187 -28.27375 75.45546875 -29.1875 74.5390625 C-30.115625 73.61867188 -31.04375 72.69828125 -32 71.75 C-32.928125 70.81414062 -33.85625 69.87828125 -34.8125 68.9140625 C-35.699375 68.02976562 -36.58625 67.14546875 -37.5 66.234375 C-38.3146875 65.42194336 -39.129375 64.60951172 -39.96875 63.77246094 C-42.88619704 61.22670787 -43.36813484 61.43199428 -46.24658203 64.01953125 Z " fill="#001D3F" transform="translate(381,17)"/>
<path d="M0 0 C29.7 0 59.4 0 90 0 C90 5.28 90 10.56 90 16 C78.12 16 66.24 16 54 16 C54 50.98 54 85.96 54 122 C47.73 122 41.46 122 35 122 C35 87.02 35 52.04 35 16 C23.45 16 11.9 16 0 16 C0 10.72 0 5.44 0 0 Z " fill="#001D3F" transform="translate(712,213)"/>
<path d="M0 0 C6.27 0 12.54 0 19 0 C19 34.65 19 69.3 19 105 C34.18 105 49.36 105 65 105 C65 110.61 65 116.22 65 122 C43.55 122 22.1 122 0 122 C0 81.74 0 41.48 0 0 Z " fill="#001D3F" transform="translate(143,213)"/>
<path d="M0 0 C5.94 0 11.88 0 18 0 C18 34.65 18 69.3 18 105 C33.51 105 49.02 105 65 105 C65 110.61 65 116.22 65 122 C43.55 122 22.1 122 0 122 C0 81.74 0 41.48 0 0 Z " fill="#001D3F" transform="translate(253,213)"/>
<path d="M0 0 C6.27 0 12.54 0 19 0 C19 40.26 19 80.52 19 122 C12.73 122 6.46 122 0 122 C0 81.74 0 41.48 0 0 Z " fill="#001D3F" transform="translate(362,213)"/>
<path d="M0 0 C4.65336034 3.28697322 7.81173874 7.43521622 9.625 12.875 C10.23875984 20.79350815 10.73965728 28.3754509 5.625 34.875 C1.56317675 39.20390204 -2.72670749 41.60289348 -8.64453125 42.2109375 C-22.02220547 42.35843115 -22.02220547 42.35843115 -27.375 37.875 C-33.66898836 31.00002809 -34.73816031 25.6475557 -34.65234375 16.3984375 C-34.15348491 10.06082233 -32.00695935 6.58286443 -27.6875 2.0625 C-19.12308043 -3.59324877 -9.28237326 -5.27924054 0 0 Z M-22.375 6.875 C-23.096875 7.4525 -23.81875 8.03 -24.5625 8.625 C-27.78715847 12.62802431 -28.64559114 16.89130083 -28.25 21.9375 C-27.34774202 27.29919396 -24.7409693 30.63912301 -20.75 34.25 C-16.17229761 36.45407893 -12.36947589 36.6721639 -7.375 35.875 C-2.51377076 33.53440814 0.14688785 30.64766043 2.625 25.875 C4.10082873 19.77490794 3.71261682 15.390285 0.625 9.875 C-2.54463086 6.15068374 -4.69766717 4.11096832 -9.6796875 3.671875 C-16.52352493 3.54525662 -16.52352493 3.54525662 -22.375 6.875 Z " fill="#001D3F" transform="translate(605.375,381.125)"/>
<path d="M0 0 C20.67857143 0 20.67857143 0 25.9375 4.75 C27.67926091 8.43843486 28.5491855 11.90464609 27.4921875 15.9375 C26.12330427 19.39573133 25.13544853 20.90970098 22 23 C21.01 23 20.02 23 19 23 C22.63566563 29.68412752 26.29224236 36.35556707 30 43 C24.94182103 43.68018202 24.94182103 43.68018202 22 43 C19.56145756 40.73687602 18.12769989 38.0364211 16.5625 35.125 C16.13001953 34.37863281 15.69753906 33.63226563 15.25195312 32.86328125 C13.76226008 30.27555154 12.33530429 27.67060857 11 25 C9.35 24.67 7.7 24.34 6 24 C6 30.27 6 36.54 6 43 C4.02 43 2.04 43 0 43 C0 28.81 0 14.62 0 0 Z M6 7 C6 10.63 6 14.26 6 18 C13.22358742 18.64082804 13.22358742 18.64082804 19.75 16.3125 C21.22911366 14.05231599 21.22911366 14.05231599 20.875 11.375 C20.13532087 8.85594875 20.13532087 8.85594875 18 7 C15.10116917 6.75660449 15.10116917 6.75660449 11.875 6.875 C10.23144531 6.90207031 10.23144531 6.90207031 8.5546875 6.9296875 C7.71164062 6.95289063 6.86859375 6.97609375 6 7 Z " fill="#001D3F" transform="translate(502,379)"/>
<path d="M0 0 C19.02985075 0 19.02985075 0 24 3 C27.46024459 6.66658945 27.56257911 9.64850117 27.42578125 14.515625 C26.72737148 18.59074989 25.07188008 20.28531528 22 23 C21.01 23 20.02 23 19 23 C21.73800276 28.68572489 24.58119106 34.14960381 28.08203125 39.40625 C29 41 29 41 29 43 C26.36 43 23.72 43 21 43 C19.51762714 40.39761208 18.03899869 37.79321772 16.5625 35.1875 C16.14162109 34.44951172 15.72074219 33.71152344 15.28710938 32.95117188 C14.88427734 32.23896484 14.48144531 31.52675781 14.06640625 30.79296875 C13.69459229 30.1383667 13.32277832 29.48376465 12.93969727 28.80932617 C12 27 12 27 11 24 C9.35 24 7.7 24 6 24 C6 30.27 6 36.54 6 43 C4.02 43 2.04 43 0 43 C0 28.81 0 14.62 0 0 Z M6 7 C6 10.63 6 14.26 6 18 C13.22358742 18.64082804 13.22358742 18.64082804 19.75 16.3125 C21.21852613 14.0530148 21.21852613 14.0530148 20.9375 11.375 C20.13344454 8.67710239 20.13344454 8.67710239 17 7 C14.25481679 6.75812349 14.25481679 6.75812349 11.3125 6.875 C9.559375 6.91625 7.80625 6.9575 6 7 Z " fill="#001D3F" transform="translate(801,379)"/>
<path d="M0 0 C9.24 0 18.48 0 28 0 C28 2.31 28 4.62 28 7 C21.07 7 14.14 7 7 7 C7 10.63 7 14.26 7 18 C13.27 18 19.54 18 26 18 C26 19.98 26 21.96 26 24 C19.73 24 13.46 24 7 24 C7 28.29 7 32.58 7 37 C13.93 37 20.86 37 28 37 C28 38.98 28 40.96 28 43 C18.76 43 9.52 43 0 43 C0 28.81 0 14.62 0 0 Z " fill="#001D3F" transform="translate(995,379)"/>
<path d="M0 0 C9.24 0 18.48 0 28 0 C28 2.31 28 4.62 28 7 C21.07 7 14.14 7 7 7 C7 10.63 7 14.26 7 18 C13.27 18 19.54 18 26 18 C26 19.98 26 21.96 26 24 C19.73 24 13.46 24 7 24 C7 28.29 7 32.58 7 37 C13.93 37 20.86 37 28 37 C28 38.98 28 40.96 28 43 C18.76 43 9.52 43 0 43 C0 28.81 0 14.62 0 0 Z " fill="#001D3F" transform="translate(729,379)"/>
<path d="M0 0 C2.21648895 1.87016255 2.70564967 2.84211348 3 5.6875 C-0.75 8.6875 -0.75 8.6875 -3 8.6875 C-3.37125 8.1925 -3.7425 7.6975 -4.125 7.1875 C-7.24149822 4.69430142 -10.09774844 5.3777975 -14 5.6875 C-16.34973818 7.58505144 -16.34973818 7.58505144 -16.125 10.8125 C-16.063125 12.235625 -16.063125 12.235625 -16 13.6875 C-15.443125 13.92984375 -14.88625 14.1721875 -14.3125 14.421875 C-10.37476161 16.15128713 -6.44707085 17.90393789 -2.5625 19.75 C-1.92441406 20.05035156 -1.28632812 20.35070312 -0.62890625 20.66015625 C1 21.6875 1 21.6875 3 24.6875 C3.65237324 29.06183428 4.03401151 33.70019906 1.94921875 37.70703125 C0.19367363 39.83543551 -1.52376011 41.44938006 -4 42.6875 C-11.59511726 43.33547504 -17.9295794 43.65420777 -24 38.6875 C-24.9375 36.4375 -24.9375 36.4375 -25 34.6875 C-23.68 33.6975 -22.36 32.7075 -21 31.6875 C-18.50638429 32.89131448 -16.31856917 34.14178722 -14 35.6875 C-9.33492572 36.15155377 -9.33492572 36.15155377 -5.0625 34.5625 C-3.55515137 31.902473 -3.80013747 29.68543795 -4 26.6875 C-4.556875 26.51734375 -5.11375 26.3471875 -5.6875 26.171875 C-19.51047324 21.78214701 -19.51047324 21.78214701 -23 16.875 C-24.60117198 11.77126432 -24.76346057 8.34166458 -22.5 3.4375 C-16.34931868 -3.32824945 -8.08445353 -3.53694842 0 0 Z " fill="#001D3F" transform="translate(1089,380.3125)"/>
<path d="M0 0 C20.5483871 0 20.5483871 0 25.375 3.9375 C28.38091574 7.75270075 28.39939484 11.28714087 28 16 C25.89275302 19.9887175 24.24748215 22.43628654 20 24 C16.765625 24.1953125 16.765625 24.1953125 13.25 24.125 C10.15625 24.063125 10.15625 24.063125 7 24 C7 30.27 7 36.54 7 43 C4.69 43 2.38 43 0 43 C0 28.81 0 14.62 0 0 Z M7 7 C7 10.63 7 14.26 7 18 C8.5675 18.061875 10.135 18.12375 11.75 18.1875 C12.63171875 18.22230469 13.5134375 18.25710938 14.421875 18.29296875 C17.48968761 17.94435368 18.7983114 17.13082965 21 15 C21.58333333 12.5 21.58333333 12.5 21 10 C19.87835874 8.24702294 19.87835874 8.24702294 18 7 C15.25756437 6.63729516 15.25756437 6.63729516 12.3125 6.8125 C10.559375 6.874375 8.80625 6.93625 7 7 Z " fill="#001D3F" transform="translate(431,379)"/>
<path d="M0 0 C19.55882353 0 19.55882353 0 25.4375 5.125 C27.62295088 9.14622962 27.92865971 12.52197138 27 17 C25.05672945 20.56760738 22.92113181 22.69295606 19 24 C14.66328697 24.13501597 10.33988266 24.04296914 6 24 C6 30.27 6 36.54 6 43 C4.02 43 2.04 43 0 43 C0 28.81 0 14.62 0 0 Z M6 7 C6 10.63 6 14.26 6 18 C7.753125 18.061875 9.50625 18.12375 11.3125 18.1875 C12.29863281 18.22230469 13.28476562 18.25710938 14.30078125 18.29296875 C17.00282853 18.21579466 17.00282853 18.21579466 18.8671875 16.71484375 C20.35114742 14.83730058 20.35114742 14.83730058 19.8125 11.375 C19.4103125 9.704375 19.4103125 9.704375 19 8 C15.14854957 6.07427479 10.19956748 6.95116782 6 7 Z " fill="#001D3F" transform="translate(659,379)"/>
<path d="M0 0 C11.22 0 22.44 0 34 0 C34 2.31 34 4.62 34 7 C29.71 7 25.42 7 21 7 C21 18.88 21 30.76 21 43 C18.69 43 16.38 43 14 43 C14 31.12 14 19.24 14 7 C9.38 7 4.76 7 0 7 C0 4.69 0 2.38 0 0 Z " fill="#001D3F" transform="translate(867,379)"/>
<path d="M0 0 C1.98 0 3.96 0 6 0 C6 14.19 6 28.38 6 43 C4.02 43 2.04 43 0 43 C0 28.81 0 14.62 0 0 Z " fill="#001D3F" transform="translate(943,379)"/>
</svg>
