<?xml version="1.0" encoding="UTF-8"?>
<svg id="Layer_2" data-name="Layer 2" xmlns="http://www.w3.org/2000/svg" viewBox="0 0 907.14 127.94">
  <g id="Layer_1-2" data-name="Layer 1">
    <g>
      <g>
        <path d="M245.15.89h-52.32v125.38h17.05v-48.15h35.28c25.07,0,43.13-16.22,43.13-38.62S270.22.89,245.15.89ZM245.15,61.41h-35.28V17.6h35.28c15.71,0,26.07,8.69,26.07,21.9s-10.36,21.9-26.07,21.9Z"/>
        <path d="M351.63,29.97c-11.04,0-21.4,3.51-29.26,10.03v-8.36h-16.88v94.62h16.88v-48.98c0-18.89,11.37-30.59,29.76-30.59,3.68,0,7.02.67,9.86,2.01l4.35-16.21c-4.52-1.67-9.36-2.51-14.71-2.51Z"/>
        <path d="M456.45,76.45c0-27.41-19.39-46.47-45.47-46.47-27.58,0-48.81,21.4-48.81,49.32s20.89,48.65,47.48,48.65c22.4,0,39.12-12.03,45.3-32.43l-15.72-5.68c-4.18,14.21-14.38,21.4-29.59,21.4s-27.59-11.03-30.26-26.41h77.06v-8.36ZM380.72,68.09c4.34-12.87,16.38-21.4,30.26-21.4s24.07,8.19,27.41,21.4h-57.67Z"/>
        <path d="M525.49,72.44l-19.72-4.35c-9.53-2.01-12.21-4.18-12.21-9.19,0-7.36,7.19-12.21,18.39-12.21,13.54,0,21.57,7.03,21.4,18.73l16.89-3.51c-2.17-19.56-17.22-31.93-38.28-31.93s-35.27,11.87-35.27,28.92c0,13.37,8.02,21.56,24.57,25.24l20.9,4.68c9.7,2.17,12.37,4.52,12.37,9.7,0,8.02-7.19,12.87-19.73,12.87-17.39,0-27.41-9.36-24.24-22.23l-17.21,3.51c-.34,21.06,16.72,35.27,41.45,35.27,21.74,0,36.61-11.87,36.61-29.42,0-18.56-16.05-23.74-25.91-26.08Z"/>
        <path d="M611.58,111.22c-18.05,0-31.09-13.54-31.09-32.26s13.37-32.27,31.09-32.27c16.05,0,26.42,8.03,30.26,23.74l15.71-5.68c-5.52-21.73-22.74-34.77-45.97-34.77-27.08,0-47.98,21.4-47.98,48.98s20.39,48.98,47.98,48.98c23.24,0,40.46-13.04,45.97-34.77l-15.71-5.68c-3.85,15.72-14.21,23.74-30.26,23.74Z"/>
        <path d="M715.73,29.97c-27.75,0-48.81,21.06-48.81,48.82s21.06,49.14,48.81,49.14,48.98-21.23,48.98-49.14-21.06-48.82-48.98-48.82ZM715.73,111.22c-18.39,0-31.93-13.71-31.93-32.43s13.37-32.1,31.93-32.1,32.1,13.37,32.1,32.1-13.54,32.43-32.1,32.43Z"/>
        <path d="M907.14,114.9c-7.02,8.86-15.21,13.04-25.24,13.04-16.55,0-28.25-11.87-28.25-28.92v-50.65h-18.62v-16.72h18.62V.65h16.88v30.99h19.09v16.72h-19.09v50.65c0,7.69,4.35,12.21,11.54,12.21,5.52,0,9.36-2.68,14.71-9.86l10.37,13.54Z"/>
        <path d="M843.28,114.9c-7.02,8.86-15.21,13.04-25.24,13.04-16.55,0-28.25-11.87-28.25-28.92v-50.65h-17.89v-16.72h17.89V.65h16.88v30.99h18.92v16.72h-18.92v50.65c0,7.69,4.35,12.21,11.54,12.21,5.52,0,9.36-2.68,14.71-9.86l10.37,13.54Z"/>
      </g>
      <g>
        <path d="M138.21,90.71l-62.41,35.47c-5.72,2.88-12.39-.06-13.38-5.91l-2.68-19.69L5.75,127.78,0,98.21l69.17-34.85.38-.19.27-.14-4.94-25.43-56.59,28.51c-1.59.8-3.44-.02-3.72-1.65L0,37.83,63.94,1.18c5.7-2.87,12.35.08,13.35,5.93l2.69,20.08L133.95,0l5.74,29.57-69.51,34.99v-.02s4.93,25.43,4.93,25.43l59.81-30.08,4.78,28.04c.19,1.1-.43,2.24-1.5,2.78Z"/>
        <line x1="69.73" y1="62.5" x2="70.5" y2="66.15"/>
      </g>
    </g>
  </g>
</svg>