<?xml version="1.0" encoding="UTF-8"?>
<svg version="1.1" xmlns="http://www.w3.org/2000/svg" width="3198" height="771">
<path d="M0 0 C6.57833315 1.89424989 13.0048089 4.02427221 19.40234375 6.45703125 C20.29142426 6.79184509 21.18050476 7.12665894 22.0965271 7.47161865 C24.02702033 8.19897403 25.95695437 8.92781493 27.88638306 9.6579895 C32.13183859 11.26442514 36.38019415 12.86312679 40.62840271 14.46226501 C42.9045422 15.31907137 45.18055081 16.17622548 47.45643616 17.03370667 C60.39689625 21.90765067 73.3544341 26.7356036 86.3125 31.5625 C90.62856501 33.1706369 94.94457785 34.77891378 99.26054764 36.38730621 C100.52652925 36.85908114 101.79251794 37.33083706 103.05851364 37.80257416 C112.98849353 41.50278098 122.91635964 45.20862469 132.84322548 48.9171772 C135.14684116 49.77773516 137.45050834 50.63815508 139.75419617 51.4985199 C140.50948766 51.78060082 141.26477915 52.06268175 142.04295826 52.35331059 C143.55990278 52.91984182 145.07684956 53.48636698 146.59379864 54.05288601 C151.00556609 55.70058919 155.41701689 57.34913662 159.82824135 58.99829292 C162.58572764 60.02894527 165.34352906 61.05875237 168.10140991 62.08834839 C169.96955818 62.78607078 171.83732689 63.48480921 173.70507812 64.18359375 C181.77800581 67.19633517 189.87832167 70.12179457 198 73 C197.4776326 72.6566713 196.9552652 72.31334259 196.41706848 71.95960999 C190.9152272 68.34304816 185.41485592 64.7242586 179.9152832 61.10424805 C177.870402 59.75863931 175.82516301 58.4135741 173.77954102 57.0690918 C167.17584228 52.7285037 160.58046775 48.37573858 154 44 C153.25312927 43.5039325 152.50625854 43.00786499 151.73675537 42.49676514 C149.843432 41.23404552 147.95716798 39.96171231 146.07421875 38.68359375 C145.07350342 38.0073999 144.07278809 37.33120605 143.04174805 36.63452148 C142.36797119 36.09512939 141.69419434 35.5557373 141 35 C141 34.34 141 33.68 141 33 C171.62459747 25.86793939 202.46963915 20.35149638 233.77349854 17.22332764 C236.3419688 16.96569906 238.90999292 16.70383152 241.47802734 16.44189453 C256.64613166 14.89878777 271.82019214 13.42325281 287 12 C287.88355164 11.91687561 288.76710327 11.83375122 289.6774292 11.74810791 C375.29165187 3.72955408 466.30866705 1.67620434 601.23950195 48.42205811 C610.09123888 53.97117737 619.58465504 55.31083129 629.6953125 57.12109375 C631.70420565 57.49554092 633.71275135 57.8718561 635.72097778 58.24986267 C640.10980447 59.07304348 644.50047863 59.88525881 648.8927002 60.69012451 C656.33086 62.05605877 663.76098679 63.46301332 671.19042969 64.87548828 C673.8336064 65.37766142 676.4768223 65.87962798 679.12005615 66.38150024 C679.7822545 66.50724454 680.44445284 66.63298883 681.12671781 66.76254356 C688.55301859 68.17199412 695.98146582 69.57000486 703.41015625 70.96679688 C704.08349109 71.09341178 704.75682593 71.22002669 705.45056486 71.35047841 C708.18364941 71.86439138 710.91674264 72.3782582 713.64985299 72.89203393 C720.69326229 74.21611404 727.7362974 75.54217975 734.77931571 76.86833775 C749.18582266 79.58095419 763.59275501 82.29130605 778 85 C778.49807219 88.8195689 778.98800167 92.6401413 779.4765625 96.4609375 C779.68647827 98.06956665 779.68647827 98.06956665 779.90063477 99.71069336 C784.30355809 134.3390903 774.37776279 167.59579715 763 200 C759.62102173 198.87367391 759.19633137 198.1795993 757.125 195.4375 C747.88960293 184.69467242 731.92976153 178.24901984 719 173 C718.34 173 717.68 173 717 173 C717.77601563 173.55945313 718.55203125 174.11890625 719.3515625 174.6953125 C730.92887752 183.21470824 741.32235666 192.85120513 749.8125 204.5 C750.22717529 205.06299805 750.64185059 205.62599609 751.0690918 206.20605469 C753.57583464 209.81369918 754.62436672 212.64489556 755 217 C754.29418945 219.61108398 754.29418945 219.61108398 753.11328125 222.24609375 C752.45730957 223.73012695 752.45730957 223.73012695 751.78808594 225.24414062 C751.30114258 226.29794922 750.81419922 227.35175781 750.3125 228.4375 C749.81137695 229.54931641 749.31025391 230.66113281 748.79394531 231.80664062 C745.06839027 239.96164675 740.98262155 247.88673286 736.75830078 255.79125977 C730.61460791 267.40957879 725.32517016 279.41635716 719.95741272 291.40641785 C716.52939543 299.06309213 713.05409145 306.69809278 709.57754517 314.33282471 C707.96805016 317.86828439 706.36103676 321.40487127 704.75390625 324.94140625 C703.8359375 326.9609375 702.91796875 328.98046875 702 331 C699.01129319 329.85742832 696.24844748 328.67156464 693.5390625 326.96875 C692.91104736 326.57574707 692.28303223 326.18274414 691.63598633 325.77783203 C690.97236084 325.35614746 690.30873535 324.93446289 689.625 324.5 C688.91947998 324.05640137 688.21395996 323.61280273 687.48706055 323.15576172 C683.47248899 320.61745863 679.51357925 318.01153264 675.59033203 315.3347168 C649.18225253 297.36547292 611.17302566 272.65186886 578.22021484 272.95239258 C577.23967133 272.9592659 576.25912781 272.96613922 575.24887085 272.97322083 C574.50674347 272.98205795 573.76461609 272.99089508 573 273 C562.03836851 307.14038753 551.1169558 341.29364748 540.5625 375.5625 C540.25569305 376.55865955 540.25569305 376.55865955 539.94268799 377.57494354 C531.61953372 404.61851849 523.70908007 431.77486862 516 459 C517.31033707 458.8445874 518.62067413 458.6891748 519.97071838 458.52905273 C524.46879944 458.03059776 528.94858607 457.73537439 533.46850586 457.53515625 C534.26376678 457.49760223 535.05902771 457.46004822 535.87838745 457.4213562 C538.49041311 457.29881599 541.10261014 457.18051792 543.71484375 457.0625 C545.57109871 456.97681726 547.42734551 456.89095752 549.28358459 456.80493164 C553.18286868 456.62489475 557.08224123 456.44695283 560.98168945 456.27050781 C565.87043007 456.04914673 570.75892064 455.82274092 575.64735985 455.59483337 C594.05397876 454.73849426 612.46022117 453.92373014 630.87890625 453.375 C631.5520027 453.3544455 632.22509914 453.33389099 632.91859245 453.31271362 C642.28254539 453.03165151 651.63288091 452.95508798 661 453 C661.20879102 466.13578486 660.47751452 479.20090147 659.75 492.3125 C659.68408661 493.51208344 659.61817322 494.71166687 659.55026245 495.94760132 C650.1412182 665.64548378 650.1412182 665.64548378 623 692 C615.91488246 697.72020873 609.36239893 700.35740671 600.1875 700.375 C599.52685547 700.39949219 598.86621094 700.42398438 598.18554688 700.44921875 C587.39415752 700.51189865 579.0091363 693.56091547 570.47348022 687.72268677 C567.12703842 685.43740654 563.76099355 683.18142434 560.39453125 680.92578125 C559.73987381 680.48691086 559.08521637 680.04804047 558.41072083 679.59587097 C551.12116427 674.72271827 543.70329667 670.18895835 536 666 C535.09572266 665.50483887 534.19144531 665.00967773 533.25976562 664.49951172 C518.21813543 656.31884689 502.9466027 649.22326533 487 643 C486.14003418 642.65662598 485.28006836 642.31325195 484.39404297 641.95947266 C424.86506057 618.30686943 357.93990918 609.94276654 294.24609375 609.796875 C292.95908412 609.79263393 292.95908412 609.79263393 291.6460743 609.78830719 C287.09518269 609.77346009 282.54432154 609.76414256 277.9934082 609.75976562 C274.31622243 609.75540839 270.63927491 609.74160251 266.9621582 609.71875 C237.37071305 609.5388346 208.15429646 610.53538663 178.9375 615.6875 C178.20816254 615.81283112 177.47882507 615.93816223 176.72738647 616.06729126 C95.91651646 630.03056526 22.31843359 666.56343605 -65 755 C-65.44456543 755.58716797 -65.88913086 756.17433594 -66.34716797 756.77929688 C-68.91411814 760.17438625 -71.46428734 763.58148368 -74 767 C-74.66 766.67 -75.32 766.34 -76 766 C-76.48657227 763.79785156 -76.48657227 763.79785156 -76.81640625 760.890625 C-76.94080078 759.82457031 -77.06519531 758.75851562 -77.19335938 757.66015625 C-77.31517578 756.53480469 -77.43699219 755.40945313 -77.5625 754.25 C-77.68818359 753.17105469 -77.81386719 752.09210937 -77.94335938 750.98046875 C-78.32178653 747.65585739 -78.66751619 744.3295037 -79 741 C-79.15009521 739.55572632 -79.15009521 739.55572632 -79.30322266 738.08227539 C-80.30924297 727.06046179 -80.24371346 715.99594337 -80.25 704.9375 C-80.25067474 703.87030731 -80.25134949 702.80311462 -80.25204468 701.70358276 C-80.23525429 684.95854293 -79.70299432 668.56078474 -77 652 C-76.74259033 650.40091797 -76.74259033 650.40091797 -76.47998047 648.76953125 C-73.72726629 632.29752576 -69.37436262 616.44919414 -63 601 C-93.67277962 613.94126227 -120.07691185 633.62141936 -143.35546875 657.390625 C-145.00460714 659.00450865 -146.7204722 660.46968549 -148.5 661.9375 C-151.73176558 664.65218308 -154.39862993 667.66177813 -157.125 670.875 C-159.11593503 673.13139303 -161.21769016 675.21511543 -163.375 677.3125 C-167.51165392 681.39296847 -171.15708426 685.74384781 -174.78515625 690.27734375 C-177.56761755 693.69775914 -180.49929843 696.964508 -183.46875 700.22265625 C-185.06839039 701.93262428 -185.06839039 701.93262428 -186 704 C-186.66 704 -187.32 704 -188 704 C-180.54664241 625.83566559 -163.43205514 542.04419041 -116.15405273 477.59960938 C-115.06635535 476.09197382 -114.03121296 474.54681944 -113 473 C-173.50554448 489.42887642 -226.89024539 519.03677199 -275.3125 558.70703125 C-277 560 -277 560 -278 560 C-279.70100622 517.11513357 -261.09635881 466.19394376 -243 428 C-242.48058838 426.89881836 -242.48058838 426.89881836 -241.95068359 425.77539062 C-239.73773541 421.12722837 -237.40867505 416.54947047 -235 412 C-234.62407715 411.28537598 -234.2481543 410.57075195 -233.86083984 409.83447266 C-222.59459475 388.56096115 -208.61777813 369.40007011 -192 352 C-191.12730469 351.07445312 -190.25460938 350.14890625 -189.35546875 349.1953125 C-179.9715841 339.49542588 -169.43613843 331.17027727 -158 324 C-181.61497459 322.27207503 -205.64027013 331.87686804 -226 343 C-226.63196289 343.34208496 -227.26392578 343.68416992 -227.91503906 344.03662109 C-234.44696511 347.59385914 -240.771933 351.24836262 -246.546875 355.96875 C-248 357 -248 357 -250 357 C-251.30651212 325.49854116 -241.78535084 294.54291307 -227 267 C-226.40832031 265.865625 -225.81664062 264.73125 -225.20703125 263.5625 C-217.06081732 248.55540228 -206.54301518 234.79302605 -194.58789062 222.62304688 C-192.87820758 220.87551107 -191.19755427 219.10236652 -189.515625 217.328125 C-180.73161105 208.17854985 -171.32936764 200.34696185 -161 193 C-160.36594238 192.54786133 -159.73188477 192.09572266 -159.07861328 191.62988281 C-122.75527824 166 -122.75527824 166 -110 166 C-110.70125 164.89785156 -111.4025 163.79570312 -112.125 162.66015625 C-134.7196029 126.71982911 -143.28542089 87.96101431 -143.25 45.6875 C-143.24940582 44.8918866 -143.24881165 44.09627319 -143.24819946 43.27655029 C-143.20746747 29.0409952 -143.20746747 29.0409952 -142 24 C-137.26580061 25.63946983 -133.32758876 28.21202865 -129.125 30.875 C-85.90748477 57.65693756 -31.11823285 86.26427292 21.07324219 76.97973633 C27.60035402 75.86141413 32.16687733 75.576823 37.8203125 79.44921875 C39.26291192 80.51832856 40.69737575 81.59847389 42.125 82.6875 C43.7214968 83.87395759 45.31919898 85.05879456 46.91796875 86.2421875 C47.74731934 86.85932617 48.57666992 87.47646484 49.43115234 88.11230469 C53.71157692 91.25773738 58.07530597 94.28203149 62.4375 97.3125 C69.3507464 102.13056214 76.2212254 106.99365729 83 112 C79.49889755 106.33374208 75.56052652 101.10560439 71.375 95.9375 C67.23274257 90.8206315 63.18196976 85.65537823 59.25 80.375 C54.62037245 74.15877167 49.95137806 67.97468771 45.25 61.8125 C44.57485352 60.92739746 43.89970703 60.04229492 43.20410156 59.13037109 C41.82438185 57.32197841 40.44449807 55.5137109 39.06445312 53.70556641 C35.0480565 48.44188294 31.03676471 43.17430807 27.02514648 37.90698242 C23.55773253 33.35480046 20.0875866 28.80473765 16.61328125 24.2578125 C15.89333984 23.31486328 15.17339844 22.37191406 14.43164062 21.40039062 C13.06012389 19.60414613 11.68778221 17.8085311 10.31445312 16.01367188 C0 2.499285 0 2.499285 0 0 Z M402 110 C405.25038807 112.16692538 408.54615185 113.4709608 412.171875 114.84375 C413.27175751 115.2652961 413.27175751 115.2652961 414.39385986 115.69535828 C416.8446005 116.63369416 419.29730258 117.56679218 421.75 118.5 C423.48711642 119.1641105 425.22409268 119.8285877 426.9609375 120.4934082 C430.6834992 121.91765041 434.40686439 123.33976362 438.13085938 124.76025391 C445.07840309 127.4106788 452.02303587 130.06869043 458.96690369 132.72872925 C463.97285495 134.64635698 468.97962018 136.56177952 473.98852539 138.47167969 C482.92643968 141.88285358 491.85063818 145.31895514 500.73046875 148.87890625 C502.19065289 149.46029937 503.65093568 150.04144477 505.11132812 150.62231445 C507.75380912 151.67340026 510.38751868 152.74322076 513.01757812 153.82495117 C514.16033203 154.27974854 515.30308594 154.7345459 516.48046875 155.203125 C517.45910889 155.60176758 518.43774902 156.00041016 519.44604492 156.41113281 C521.9592291 157.22132318 521.9592291 157.22132318 524.19433594 156.28735352 C527.05612819 154.24703029 528.98125406 151.47572549 531.0625 148.6875 C535.37124498 143.03439121 539.83190069 137.57405944 544.55883789 132.2644043 C546.93616511 129.53111364 548.28896926 127.53626843 549 124 C530.86758604 122.17039652 512.73477564 120.34477652 494.60148525 118.52388 C486.18164212 117.67828838 477.76193316 116.83140047 469.3425293 115.98144531 C462.00302449 115.2405114 454.66327817 114.5020255 447.32323319 113.76646137 C443.43781918 113.37700851 439.55253593 112.98634229 435.6675396 112.59274292 C432.0079762 112.22202187 428.3480977 111.85458452 424.68795586 111.48962021 C422.71024346 111.29156574 420.73287667 111.09006944 418.75552368 110.88845825 C413.14516262 110.33196798 407.638977 109.82889438 402 110 Z " fill="#000" transform="translate(278,0)"/>
<path d="M0 0 C29.75859346 -0.06859596 59.51718424 -0.12161036 89.27583986 -0.15319599 C92.7976629 -0.15694763 96.31948579 -0.16083064 99.84130859 -0.16479492 C100.89290384 -0.16597532 100.89290384 -0.16597532 101.96574344 -0.16717956 C113.28296212 -0.18019545 124.60013459 -0.20382798 135.91732596 -0.23145839 C147.54975863 -0.25961932 159.18216452 -0.27597451 170.81462967 -0.28226548 C177.3400062 -0.28616205 183.86527827 -0.29526187 190.39062119 -0.31719017 C196.544893 -0.33770201 202.69901832 -0.34380433 208.85332108 -0.33932304 C211.10012358 -0.34014171 213.3469315 -0.34601904 215.59370422 -0.35761642 C232.18629179 -0.43899155 248.06571881 0.68078389 264 5.6875 C264.82266357 5.94168701 265.64532715 6.19587402 266.49291992 6.45776367 C291.25620076 14.37869438 312.35277702 27.99990926 331 46 C331.556875 46.53278564 332.11375 47.06557129 332.6875 47.61450195 C344.0644191 58.70731201 352.80813744 71.90323199 360 86 C360.31662598 86.60489258 360.63325195 87.20978516 360.95947266 87.83300781 C379.79786283 124.09321992 382.01792316 168.85495826 369.82470703 207.56982422 C362.992116 227.70351609 352.78828697 245.85478227 339 262 C338.31719971 262.80244141 338.31719971 262.80244141 337.62060547 263.62109375 C331.3702494 270.88616126 324.62702052 277.17190432 317 283 C315.97261719 283.79664063 314.94523437 284.59328125 313.88671875 285.4140625 C308.76184438 289.33270865 303.72157761 293.00917534 298 296 C299.26264904 298.7153387 300.60350426 300.9004586 302.58203125 303.14453125 C303.09515869 303.73113525 303.60828613 304.31773926 304.13696289 304.92211914 C304.68989014 305.54594482 305.24281738 306.16977051 305.8125 306.8125 C306.99488976 308.16137235 308.17717862 309.51033316 309.359375 310.859375 C309.96458984 311.54708984 310.56980469 312.23480469 311.19335938 312.94335938 C313.99835799 316.13650914 316.78059239 319.34923664 319.5625 322.5625 C320.0997168 323.1822168 320.63693359 323.80193359 321.19042969 324.44042969 C327.31682324 331.51104765 333.39794975 338.62030957 339.47949219 345.72949219 C345.67668355 352.97248512 351.89565979 360.19560865 358.14428711 367.39428711 C362.27566092 372.15661197 366.38195682 376.93985982 370.48046875 381.73046875 C374.1371438 386.00138843 377.81435479 390.25406669 381.5 394.5 C386.1809556 399.89254979 390.83835664 405.30446436 395.48046875 410.73046875 C399.1371438 415.00138843 402.81435479 419.25406669 406.5 423.5 C411.1809556 428.89254979 415.83835664 434.30446436 420.48046875 439.73046875 C424.13714472 444.0013895 427.81449539 448.25394361 431.5 452.5 C435.88461323 457.55424645 440.26302549 462.61369407 444.625 467.6875 C445.12193359 468.26371094 445.61886719 468.83992188 446.13085938 469.43359375 C453 477.43647603 453 477.43647603 453 480 C434.65852189 480.25736839 416.31751459 480.45113361 397.97461891 480.56993389 C389.45691058 480.62657051 380.9403264 480.70373202 372.42333984 480.82983398 C364.99674022 480.939739 357.57095488 481.01050144 350.14356458 481.03497344 C346.21305761 481.04927229 342.28487928 481.08267956 338.35512161 481.16303062 C334.64924928 481.23818391 330.94664382 481.26063713 327.24008179 481.24418449 C325.24486383 481.248614 323.24999537 481.3075698 321.25570679 481.36862183 C315.8483295 481.3009654 312.3769683 481.09586781 308.06043625 477.660532 C305.50150444 474.88074671 303.23487589 472.04397017 301 469 C299.50681735 467.16110993 298.00774471 465.32696935 296.5 463.5 C295.7678125 462.5925 295.035625 461.685 294.28125 460.75 C291.93281032 457.91900422 289.49090098 455.20616402 287 452.5 C282.88621091 448.0301488 279.02912703 443.40955107 275.21484375 438.68359375 C273.04367173 436.05291443 270.79758643 433.52057576 268.5 431 C265.40444804 427.60401318 262.44848793 424.13828469 259.5625 420.5625 C255.70174863 415.788597 251.62562925 411.26611572 247.46875 406.75 C244.27118704 403.18815771 241.28611657 399.47434167 238.28125 395.75 C235.93281032 392.91900422 233.49090098 390.20616402 231 387.5 C226.90648909 383.05272888 223.07557501 378.45282537 219.28125 373.75 C216.93281032 370.91900422 214.49090098 368.20616402 212 365.5 C207.88621091 361.0301488 204.02912703 356.40955107 200.21484375 351.68359375 C198.04367173 349.05291443 195.79758643 346.52057576 193.5 344 C189.67526357 339.8034142 186.07103365 335.47002632 182.53125 331.03125 C181.6959375 330.0309375 180.860625 329.030625 180 328 C179.44348755 327.19348999 178.8869751 326.38697998 178.31359863 325.55603027 C175.14103399 321.37598133 172.73969753 318.45721281 167.54846191 317.09289551 C163.64523128 316.79459079 159.8502209 316.76700967 155.9375 316.875 C154.5813791 316.87694589 153.22524387 316.87437562 151.86914062 316.8671875 C148.5765424 316.8671875 145.29124402 316.91260773 142 317 C141.75594257 327.98237069 141.60534072 338.96214514 141.56215668 349.94723892 C141.53940083 355.05303698 141.48885316 360.15483519 141.36572266 365.25927734 C140.72419828 392.96054781 143.85643962 413.83387356 157.05834961 438.33666992 C159.67442579 443.20775235 161.8760451 448.24506583 164.0625 453.3203125 C164.73710844 454.83573956 165.41406796 456.35012294 166.09375 457.86328125 C166.40699219 458.56404785 166.72023438 459.26481445 167.04296875 459.98681641 C167.70846936 461.473667 168.37522887 462.95995449 169.04296875 464.44580078 C170.05286756 466.69413962 171.05815189 468.94448981 172.0625 471.1953125 C172.3622876 471.85951202 172.6620752 472.52371155 172.97094727 473.20803833 C175 477.77226621 175 477.77226621 175 480 C128.14 480 81.28 480 33 480 C33.03778564 467.78709961 33.07557129 455.57419922 33.11450195 442.99121094 C33.22645827 403.82729449 33.27408065 364.66353311 33.28166701 325.49946295 C33.28290578 319.40686834 33.28471049 313.31427403 33.28686523 307.22167969 C33.28728466 306.00885355 33.28770408 304.79602742 33.28813621 303.54644898 C33.29625682 283.95868263 33.35012909 264.37129947 33.42118094 244.78367183 C33.4931643 224.65566824 33.51535159 204.52804449 33.49218339 184.39992356 C33.4794528 171.99901492 33.50466025 159.59941371 33.57981863 147.1987212 C33.62775774 138.67247328 33.62693302 130.14705915 33.58934812 121.62076375 C33.56911501 116.71527233 33.56885287 111.81216241 33.62704659 106.90692139 C33.88178283 84.07789808 32.12626471 66.83034618 20.57047784 46.80482912 C18.19225772 42.55739508 16.26224869 38.13762594 14.3359375 33.671875 C13.66415094 32.15823626 12.99117778 30.64512292 12.31640625 29.1328125 C11.99687988 28.41125977 11.67735352 27.68970703 11.34814453 26.94628906 C10.34111922 24.6735345 9.3288995 22.40313575 8.31640625 20.1328125 C7.65595123 18.64596601 6.9957827 17.15899222 6.3359375 15.671875 C6.0422226 15.01354675 5.74850769 14.35521851 5.44589233 13.67694092 C4.00055489 10.40445707 2.64684185 7.11806512 1.39981079 3.76446533 C1.13583811 3.05597065 0.87186543 2.34747597 0.59989357 1.61751175 C0.40192869 1.08373287 0.20396381 0.54995399 0 0 Z M142 108 C142 141 142 174 142 208 C162.3878125 208.12375 162.3878125 208.12375 183.1875 208.25 C189.58805786 208.30462402 189.58805786 208.30462402 196.11791992 208.36035156 C199.99496583 208.37374205 199.99496583 208.37374205 203.87202454 208.3817749 C205.57816256 208.38785496 207.2842851 208.40179164 208.99031067 208.42230225 C226.65688812 208.62379247 240.96727813 205.69864551 254.3125 193.1875 C264.5393288 182.33197271 268.41530469 169.42014223 268.27734375 154.765625 C267.34374656 142.08974201 261.21626985 129.76063404 252 121 C240.84788054 111.59484279 228.29433184 107.81477517 213.86157227 107.88647461 C213.06775367 107.88635407 212.27393507 107.88623354 211.45606136 107.88610935 C208.90948025 107.88685036 206.36297412 107.89444125 203.81640625 107.90234375 C202.23498571 107.90381569 200.65356468 107.90483485 199.07214355 107.90539551 C193.23558823 107.9106192 187.39904336 107.92458046 181.5625 107.9375 C168.506875 107.958125 155.45125 107.97875 142 108 Z " fill="#000" transform="translate(2745,90)"/>
<path d="M0 0 C113.85 0 227.7 0 345 0 C345 35.64 345 71.28 345 108 C278.01 108 211.02 108 142 108 C142 141 142 174 142 208 C208.99 208 275.98 208 345 208 C343.08684998 215.0148834 341.13634131 221.95989944 338.953125 228.88671875 C338.66480804 229.80740646 338.37649109 230.72809418 338.07943726 231.67668152 C337.13820264 234.68089075 336.19415087 237.68420613 335.25 240.6875 C334.59013885 242.7911178 333.93047418 244.89479724 333.27099609 246.99853516 C332.24221935 250.28022625 331.21327806 253.56186483 330.18356323 256.84326172 C327.68306824 264.81309613 325.19433305 272.78654118 322.7109375 280.76171875 C321.68183077 284.06436245 320.65262283 287.36697459 319.62341309 290.66958618 C318.95858958 292.80400778 318.29428168 294.93859004 317.63049316 297.07333374 C316.70573552 300.04677137 315.7788847 303.01954886 314.8515625 305.9921875 C314.57621674 306.87948044 314.30087097 307.76677338 314.0171814 308.68095398 C313.7648172 309.4886171 313.512453 310.29628021 313.25244141 311.12841797 C313.0334317 311.83191376 312.814422 312.53540955 312.58877563 313.26022339 C312 315 312 315 311 317 C255.23 317 199.46 317 142 317 C142 334.82 142 352.64 142 371 C208.99 371 275.98 371 345 371 C343.29651641 377.2461065 341.61849009 383.39572397 339.67504883 389.55322266 C339.46312897 390.22668228 339.25120911 390.90014191 339.03286743 391.5940094 C338.34295759 393.78467494 337.65004647 395.97437757 336.95703125 398.1640625 C336.46464738 399.72507427 335.97243822 401.28614115 335.48039246 402.84725952 C334.45036979 406.113749 333.41898777 409.37980472 332.38647461 412.64550781 C331.08856137 416.75064091 329.79286767 420.85646962 328.49809742 424.96259499 C327.2351605 428.96748815 325.97116707 432.97204763 324.70703125 436.9765625 C324.47821573 437.70160603 324.24940022 438.42664955 324.01365089 439.17366409 C319.71349053 452.79467412 315.35337544 466.39570174 311 480 C219.26 480 127.52 480 33 480 C33.14824219 451.10695313 33.29648438 422.21390625 33.44921875 392.4453125 C33.50072455 374.08849423 33.54749481 355.73184505 33.57226562 337.375 C33.58553811 327.72265366 33.60000031 318.07031022 33.61645508 308.41796875 C33.61846737 307.20847966 33.62047966 305.99899057 33.62255293 304.75285029 C33.65661898 285.3166669 33.75763598 265.88139328 33.88409772 246.44561638 C34.01270872 226.44634661 34.06771426 206.44781357 34.05671436 186.44812953 C34.05219606 174.14179519 34.10267511 161.83836214 34.22731743 149.53264718 C34.30765953 141.0532624 34.31545035 132.57558681 34.27035638 124.09595282 C34.24648371 119.22815701 34.25055866 114.36552904 34.34227943 109.49842262 C34.84352637 81.29865787 28.36113734 60.59493336 15.36713088 35.63438964 C12.01730902 29.16069756 9.0713148 22.50796889 6.12847491 15.84206451 C4.82856262 12.90751069 3.50120681 9.98561053 2.17578125 7.0625 C0 2.25004754 0 2.25004754 0 0 Z " fill="#000" transform="translate(2346,90)"/>
<path d="M0 0 C2.9522359 2.59626512 5.95055357 5.11654503 8.98046875 7.62109375 C7.67998499 11.23751836 6.13557974 14.00779909 3.77734375 17.03515625 C3.13410156 17.86853516 2.49085938 18.70191406 1.828125 19.56054688 C1.13589844 20.44677734 0.44367187 21.33300781 -0.26953125 22.24609375 C-1.73436233 24.14353652 -3.1978797 26.04199412 -4.66015625 27.94140625 C-5.39556641 28.89563477 -6.13097656 29.84986328 -6.88867188 30.83300781 C-9.98818002 34.88850541 -13.00816301 38.99995224 -16.01953125 43.12109375 C-21.0381577 49.98009983 -26.15897073 56.75289837 -31.33203125 63.49609375 C-37.12861467 71.05700532 -42.72747424 78.6977084 -48.01953125 86.62109375 C-51.68864123 86.05286875 -53.2643136 84.67729777 -55.76953125 81.99609375 C-59.01467971 78.62521076 -62.35371086 75.50301471 -65.90625 72.4609375 C-67.39141515 71.1679379 -68.85040894 69.84455918 -70.2890625 68.5 C-98.71090381 42.00661965 -136.66929138 28.0487227 -175.33203125 28.47265625 C-210.84785723 29.90231874 -241.45575676 46.31205312 -265.58056641 72.02978516 C-273.18308921 80.43718992 -279.37872784 89.80951448 -285.01953125 99.62109375 C-285.35194824 100.19553223 -285.68436523 100.7699707 -286.02685547 101.36181641 C-295.09044197 117.1677741 -301.04903584 133.86757342 -305.01953125 151.62109375 C-305.26727295 152.67925293 -305.26727295 152.67925293 -305.52001953 153.75878906 C-310.44695786 175.55552346 -310.31320177 201.91847149 -305.01953125 223.62109375 C-304.82085449 224.44786621 -304.62217773 225.27463867 -304.41748047 226.12646484 C-297.97427104 252.1357949 -286.9338507 274.6418839 -269.01953125 294.62109375 C-268.14868054 295.67014692 -267.28147498 296.72223689 -266.41796875 297.77734375 C-263.26168327 301.51964966 -259.79456857 304.52017023 -256.01953125 307.62109375 C-255.08109375 308.39710938 -254.14265625 309.173125 -253.17578125 309.97265625 C-235.48072286 324.27138249 -215.03386044 333.32462067 -193.01953125 338.62109375 C-192.05789062 338.85699219 -191.09625 339.09289062 -190.10546875 339.3359375 C-164.5516428 344.75524734 -137.4871265 340.28083322 -112.03881836 336.29833984 C-110.98161842 336.13338013 -110.98161842 336.13338013 -109.90306091 335.96508789 C-107.9848504 335.66363616 -106.06758464 335.35619017 -104.15039062 335.04833984 C-101.01953125 334.62109375 -101.01953125 334.62109375 -97.01953125 334.62109375 C-96.69171527 322.57138753 -96.44469934 310.5227814 -96.29416084 298.46948528 C-96.221819 292.86922301 -96.12412451 287.27206159 -95.96337891 281.67358398 C-94.78561552 246.05978416 -94.78561552 246.05978416 -109.18684387 214.30476379 C-112.350465 209.67215958 -114.94889835 204.72235057 -117.64453125 199.80859375 C-118.69948691 197.95365536 -119.75760857 196.10051027 -120.8203125 194.25 C-124.22492524 188.28535407 -127.53979045 182.27335892 -130.83203125 176.24609375 C-131.61537842 174.81753052 -131.61537842 174.81753052 -132.41455078 173.36010742 C-132.88876465 172.48974854 -133.36297852 171.61938965 -133.8515625 170.72265625 C-134.27155518 169.95260254 -134.69154785 169.18254883 -135.12426758 168.38916016 C-136.01953125 166.62109375 -136.01953125 166.62109375 -136.01953125 165.62109375 C-90.14953125 165.62109375 -44.27953125 165.62109375 2.98046875 165.62109375 C3.60326143 205.31309339 3.60326143 205.31309339 3.75341797 217.72558594 C3.76394062 218.59536748 3.77446327 219.46514903 3.78530478 220.36128759 C4.16831611 252.75550252 4.09338943 285.15245334 4.05249536 317.54834819 C4.0409529 326.8677409 4.03573092 336.18713474 4.03079236 345.50653291 C4.02057455 364.54472801 4.0032055 383.58290966 3.98046875 402.62109375 C2.41767902 403.25454544 0.85403136 403.88588072 -0.70996094 404.51635742 C-2.01595245 405.0440699 -2.01595245 405.0440699 -3.34832764 405.58244324 C-67.5664868 430.55254421 -153.21339535 441.03072511 -221.01953125 429.62109375 C-222.46658447 429.3876123 -222.46658447 429.3876123 -223.94287109 429.14941406 C-267.35098016 421.90629578 -309.35403797 402.6018861 -341.765625 372.6875 C-343.76583185 370.85368817 -345.81296363 369.11072008 -347.89453125 367.37109375 C-391.04806158 329.61175471 -412.66937709 270.19463446 -416.80786133 214.29516602 C-417.19638326 207.55137526 -417.26406657 200.81163535 -417.26953125 194.05859375 C-417.27020599 193.29919495 -417.27088074 192.53979614 -417.27157593 191.75738525 C-417.18822991 132.05827077 -399.33109586 71.1651358 -361.01953125 24.62109375 C-360.57706055 24.07710938 -360.13458984 23.533125 -359.67871094 22.97265625 C-348.50455206 9.3022265 -336.15336044 -3.74645368 -322.01953125 -14.37890625 C-321.38354004 -14.86423828 -320.74754883 -15.34957031 -320.09228516 -15.84960938 C-309.24711195 -24.08923785 -298.13572174 -31.16740967 -286.01953125 -37.37890625 C-285.22772461 -37.79237305 -284.43591797 -38.20583984 -283.62011719 -38.63183594 C-257.65223716 -52.08632097 -229.12529043 -60.464942 -200.01953125 -63.37890625 C-199.00503906 -63.48976563 -197.99054687 -63.600625 -196.9453125 -63.71484375 C-124.86555317 -70.27560905 -54.2211008 -47.81763642 0 0 Z " fill="#000" transform="translate(2289.01953125,145.37890625)"/>
<path d="M0 0 C142.89 0 285.78 0 433 0 C433 30.69 433 61.38 433 93 C378.55 93 324.1 93 268 93 C267.71145227 147.5742676 267.71145227 147.5742676 267.57421875 202.1484375 C267.56681871 209.54004083 267.55841772 216.93164199 267.54833984 224.32324219 C267.5471188 225.24941495 267.54589775 226.17558771 267.54463971 227.12982631 C267.52357835 242.00219673 267.44621719 256.87375293 267.34736067 271.74578664 C267.2468744 287.05549821 267.20851162 302.36449699 267.22555113 317.67453218 C267.23337834 326.25469025 267.21391263 334.8328605 267.12312317 343.41259003 C265.89319254 392.59434781 265.89319254 392.59434781 283.11888123 437.86782646 C285.89024888 442.48231682 287.97366832 447.33471187 290.0625 452.28515625 C290.73594565 453.79654801 291.41240645 455.3066053 292.09375 456.81445312 C292.56361328 457.86258179 292.56361328 457.86258179 293.04296875 458.93188477 C293.70788236 460.41216564 294.37468615 461.89159835 295.04296875 463.37036133 C296.05458654 465.61054004 297.05923149 467.85372849 298.0625 470.09765625 C298.3622876 470.75669449 298.6620752 471.41573273 298.97094727 472.09474182 C300.2287533 474.92374467 301 476.86447739 301 480 C254.47 480 207.94 480 160 480 C160 352.29 160 224.58 160 93 C107.2 93 54.4 93 0 93 C0 62.31 0 31.62 0 0 Z " fill="#000" transform="translate(1189,90)"/>
<path d="M0 0 C46.53 0 93.06 0 141 0 C140.94126709 12.10518311 140.88253418 24.21036621 140.82202148 36.68237305 C140.64556197 75.54705443 140.55366244 114.41153248 140.51407167 153.27658455 C140.50783098 159.32753829 140.50084894 165.37849097 140.4934082 171.42944336 C140.49193954 172.63392747 140.49047088 173.83841158 140.48895771 175.07939521 C140.46350804 194.50604889 140.3781931 213.93199192 140.27020787 233.35834219 C140.16051065 253.33611275 140.11641284 273.31327669 140.13146263 293.29134589 C140.13871214 305.5897668 140.0966107 317.88588293 139.9885155 330.18383972 C139.91902267 338.6514272 139.91404329 347.11762747 139.95664638 355.58538427 C139.97931417 360.45013334 139.97658491 365.31075106 139.89613152 370.17498016 C139.48324343 396.64007088 144.42160886 415.99984497 157.03842652 439.31285155 C159.60443645 444.07272779 161.80110746 448.98202987 163.94140625 453.9453125 C164.56852694 455.36118013 165.19658464 456.77663368 165.82617188 458.19140625 C166.11161865 458.83867676 166.39706543 459.48594727 166.69116211 460.15283203 C167.620793 462.25693915 168.55958311 464.35685061 169.49804688 466.45703125 C170.10470134 467.82788851 170.71084729 469.19897096 171.31640625 470.5703125 C171.83662354 471.74352051 172.35684082 472.91672852 172.89282227 474.12548828 C174 477 174 477 174 480 C127.14 480 80.28 480 32 480 C32.06396973 467.84994141 32.12793945 455.69988281 32.19384766 443.18164062 C32.38646499 404.15858316 32.48941289 365.13573981 32.53699366 326.1122469 C32.54448472 320.03511672 32.5527611 313.95798785 32.56152344 307.88085938 C32.5641199 306.06634176 32.5641199 306.06634176 32.56676881 304.21516722 C32.59654139 284.71289456 32.6897085 265.21142608 32.80694492 245.70950538 C32.92610261 225.6492272 32.97564898 205.58961677 32.96262586 185.5289855 C32.95674338 173.18285571 33.0030262 160.83931135 33.11940096 148.4937188 C33.19432383 139.98962882 33.20069884 131.48707725 33.156855 122.98278028 C33.1335884 118.09924304 33.13697498 113.22032441 33.22307396 108.33738708 C33.67907343 80.90715033 27.95606779 60.73203246 15.26994586 36.43352032 C11.97781683 30.08913746 9.09240449 23.56123161 6.19530185 17.0296753 C4.8854996 14.08821496 3.54740535 11.1599011 2.2109375 8.23046875 C0 3.37411015 0 3.37411015 0 0 Z " fill="#000" transform="translate(1677,90)"/>
<path d="M0 0 C49.98843931 0 49.98843931 0 58.4375 7.02734375 C58.953125 7.65769531 59.46875 8.28804687 60 8.9375 C60.53625 9.56527344 61.0725 10.19304688 61.625 10.83984375 C66.30625177 18.19419668 65.9744725 27.5878 65 36 C62.93952294 43.65730779 58.59693889 47.9148663 52 52 C51.01 52.66 50.02 53.32 49 54 C50.8823653 57.64462071 52.76640161 61.28837256 54.65185547 64.93139648 C55.29031334 66.16554549 55.9283486 67.39991324 56.56591797 68.63452148 C57.49329724 70.43013222 58.42213469 72.2249801 59.3515625 74.01953125 C59.65628479 74.60904572 59.96100708 75.19856018 60.27496338 75.80593872 C62.72813958 80.53039605 65.3058938 85.17779738 67.94677734 89.79956055 C69 92 69 92 69 95 C63.72 95 58.44 95 53 95 C46.13825707 82.0940835 39.48700337 69.09822595 33 56 C26.73 55.67 20.46 55.34 14 55 C14 68.2 14 81.4 14 95 C9.38 95 4.76 95 0 95 C0 63.65 0 32.3 0 0 Z M14 13 C14 22.24 14 31.48 14 41 C18.49625 41.0825 22.9925 41.165 27.625 41.25 C29.73575928 41.30462402 29.73575928 41.30462402 31.88916016 41.36035156 C39.13030277 41.64051818 39.13030277 41.64051818 45.7734375 39.234375 C49.53783102 35.45677309 50.29042787 32.86716911 50.3125 27.5625 C50.21085278 22.10985269 49.02269239 19.35980779 45.5 15.25 C42.25577607 12.54648006 38.81749248 12.88348595 34.80078125 12.90234375 C33.71192627 12.90484131 32.62307129 12.90733887 31.5012207 12.90991211 C29.42780396 12.92356812 29.42780396 12.92356812 27.3125 12.9375 C22.919375 12.958125 18.52625 12.97875 14 13 Z " fill="#000" transform="translate(2245,675)"/>
<path d="M0 0 C50.5377182 0 50.5377182 0 58.4609375 7.25390625 C64.45760619 14.05723342 65.37153504 21.85907414 65.2734375 30.609375 C64.6371908 38.49883403 61.55389815 44.12696296 55.9765625 49.625 C53.47131801 51.36777878 50.89544231 52.07990697 48 53 C49.99859744 56.85489548 51.99901534 60.70884316 54 64.5625 C54.58998779 65.69953369 55.17997559 66.83656738 55.7878418 68.00805664 C59.68847445 75.51345601 63.64909329 82.98091906 67.70703125 90.40234375 C69 93 69 93 69 95 C63.39 95 57.78 95 52 95 C49.28902487 89.62738159 46.58325071 84.25218884 43.88232422 78.87451172 C42.96221146 77.04436161 42.0406659 75.21493114 41.11767578 73.38623047 C39.79344965 70.76195849 38.4743492 68.13516608 37.15625 65.5078125 C36.74064819 64.68693146 36.32504639 63.86605042 35.89685059 63.02029419 C35.5164563 62.25965668 35.13606201 61.49901917 34.74414062 60.71533203 C34.40660767 60.04470734 34.06907471 59.37408264 33.72131348 58.68313599 C33 57 33 57 33 55 C26.73 55 20.46 55 14 55 C14 68.2 14 81.4 14 95 C9.38 95 4.76 95 0 95 C0 63.65 0 32.3 0 0 Z M14 13 C14 22.24 14 31.48 14 41 C18.49625 41.103125 22.9925 41.20625 27.625 41.3125 C29.03217285 41.35802002 30.4393457 41.40354004 31.88916016 41.45043945 C39.3405612 41.75643113 39.3405612 41.75643113 45.8125 38.625 C49.49842249 34.20189302 50.4185925 30.81110157 50.25390625 24.9921875 C49.7278835 20.86493209 48.04628212 17.94819317 45 15.1875 C41.27609424 12.97643096 38.25965677 12.88166021 34.01953125 12.90234375 C32.97128174 12.90484131 31.92303223 12.90733887 30.84301758 12.90991211 C29.51294678 12.91901611 28.18287598 12.92812012 26.8125 12.9375 C22.584375 12.958125 18.35625 12.97875 14 13 Z " fill="#000" transform="translate(1807,675)"/>
<path d="M0 0 C7.41260273 5.07316428 12.01117977 11.43462828 14.11328125 20.17578125 C15.42815425 27.21723798 15.33538853 34.33935356 15.31567383 41.47607422 C15.31251532 43.86342145 15.33603692 46.24952396 15.36132812 48.63671875 C15.41542864 61.63426249 14.48507944 74.0330485 5.1796875 83.9375 C-2.56247073 91.22423715 -10.49394735 92.97336869 -21 93 C-29.87721065 92.44290356 -37.41128522 89.50976915 -43.81640625 83.21484375 C-52.64845807 72.43487073 -52.6355102 60.24205158 -52.52148438 46.97558594 C-52.50004571 44.00633057 -52.52135476 41.03949421 -52.546875 38.0703125 C-52.5646033 25.7864024 -52.1870845 13.30337671 -43 4 C-31.46242132 -5.38650469 -13.11274788 -8.08778975 0 0 Z M-34.703125 17.890625 C-37.95127115 23.17375427 -38.3086127 29.00626765 -38.30078125 35.05859375 C-38.30506638 35.8065773 -38.3093515 36.55456085 -38.31376648 37.32521057 C-38.3194754 38.89754225 -38.32003559 40.46990033 -38.31567383 42.04223633 C-38.31251297 44.4277108 -38.33601772 46.81194389 -38.36132812 49.19726562 C-38.36360164 50.73437346 -38.36430437 52.27148458 -38.36328125 53.80859375 C-38.37709587 54.86209267 -38.37709587 54.86209267 -38.39118958 55.93687439 C-38.32464962 63.17466756 -36.22812449 69.77187551 -31 75 C-25.60780866 78.35514128 -20.27044364 79.62380015 -14 78.4375 C-9.48180551 77.12152102 -5.94007148 74.66950694 -3 71 C-0.14661058 65.45746417 0.45590815 61.03295594 0.43359375 54.84765625 C0.4388356 53.98869247 0.44407745 53.1297287 0.44947815 52.24473572 C0.45587101 50.43701249 0.45459699 48.62924751 0.44604492 46.8215332 C0.43753444 44.07361947 0.46633403 41.32778707 0.49804688 38.58007812 C0.49965929 36.81510478 0.49908059 35.0501278 0.49609375 33.28515625 C0.50732773 32.47345474 0.51856171 31.66175323 0.53013611 30.82545471 C0.46124776 25.1149689 -0.81863411 20.78057496 -4 16 C-9.51371518 10.76197058 -13.85501337 9.57945251 -21.31640625 9.7578125 C-27.49284484 10.31522035 -30.77994631 13.4612297 -34.703125 17.890625 Z " fill="#000" transform="translate(1969,678)"/>
<path d="M0 0 C20.46 0 40.92 0 62 0 C62 4.29 62 8.58 62 13 C46.49 13 30.98 13 15 13 C15 22.24 15 31.48 15 41 C28.2 41 41.4 41 55 41 C55 45.29 55 49.58 55 54 C41.8 54 28.6 54 15 54 C15 62.91 15 71.82 15 81 C30.51 81 46.02 81 62 81 C62 85.62 62 90.24 62 95 C41.54 95 21.08 95 0 95 C0 63.65 0 32.3 0 0 Z " fill="#000" transform="translate(2139,675)"/>
<path d="M0 0 C20.13 0 40.26 0 61 0 C61 4.29 61 8.58 61 13 C45.49 13 29.98 13 14 13 C14 22.24 14 31.48 14 41 C27.2 41 40.4 41 54 41 C54 45.29 54 49.58 54 54 C40.8 54 27.6 54 14 54 C14 62.91 14 71.82 14 81 C29.51 81 45.02 81 61 81 C61 85.62 61 90.24 61 95 C40.87 95 20.74 95 0 95 C0 63.65 0 32.3 0 0 Z " fill="#000" transform="translate(2518,675)"/>
<path d="M0 0 C1.0725 0.7425 2.145 1.485 3.25 2.25 C2.63801624 5.68950364 1.32941153 7.76564485 -0.8125 10.5 C-1.36035156 11.20640625 -1.90820312 11.9128125 -2.47265625 12.640625 C-2.89417969 13.17171875 -3.31570312 13.7028125 -3.75 14.25 C-6.86733407 13.08099972 -9.80172018 11.72306241 -12.75 10.1875 C-20.03395664 6.5387396 -27.73845921 6.15602517 -35.5625 8.4375 C-39.52873525 9.93262533 -41.70077015 11.40769404 -43.75 15.25 C-44.87212201 19.11857448 -45.10259729 22.14183708 -43.875 26 C-38.42038487 31.77547484 -29.80202779 33.11688455 -22.3125 34.6875 C-11.81738386 37.06863722 -3.24382728 39.07894398 3.19140625 48.28515625 C6.78605858 54.95714931 6.05993976 64.46466784 4.82421875 71.765625 C2.87774454 77.83193727 -1.42661969 82.16639633 -6.75 85.50390625 C-19.29253584 91.75211804 -34.95055165 91.56338076 -48.125 87.5625 C-53.33489745 85.62114255 -58.78901351 83.25099645 -62.75 79.25 C-62.75 74.87548685 -62.34622397 74.24527997 -59.75 71 C-59.193125 70.29359375 -58.63625 69.5871875 -58.0625 68.859375 C-57.629375 68.32828125 -57.19625 67.7971875 -56.75 67.25 C-51.96172435 68.17082224 -47.91184572 70.64584023 -43.625 72.875 C-36.07809341 76.48439011 -26.02645507 76.74314667 -18.125 74 C-14.26260891 71.9972787 -11.70714048 70.16428095 -9.75 66.25 C-9.27760369 60.597296 -9.27760369 60.597296 -11.25 55.4375 C-17.70826536 49.78651781 -27.45385241 48.8839958 -35.6171875 47.23242188 C-44.4347591 45.34555925 -51.5861709 43.06951264 -56.75 35.25 C-60.89779936 26.53627635 -60.84467616 17.63893587 -57.78515625 8.57421875 C-55.06473911 2.46611235 -50.95231059 -1.12004111 -44.97265625 -3.92578125 C-30.07558879 -9.45000135 -13.60724113 -8.30633328 0 0 Z " fill="#000" transform="translate(2684.75,680.75)"/>
<path d="M0 0 C47.88235294 0 47.88235294 0 57.25 6.125 C63.84521734 13.01999995 66.31524728 21.23551281 66.14453125 30.609375 C65.61481214 39.37121535 62.78829946 46.486259 56.296875 52.60546875 C50.40486352 57.13063973 44.11349068 58.2584849 36.75390625 58.1953125 C35.5532251 58.19031738 34.35254395 58.18532227 33.11547852 58.18017578 C31.61299561 58.16196777 30.1105127 58.14375977 28.5625 58.125 C23.756875 58.08375 18.95125 58.0425 14 58 C14 70.21 14 82.42 14 95 C9.38 95 4.76 95 0 95 C0 63.65 0 32.3 0 0 Z M14 13 C14 23.56 14 34.12 14 45 C17.980625 45.061875 21.96125 45.12375 26.0625 45.1875 C27.30394775 45.21481201 28.54539551 45.24212402 29.82446289 45.27026367 C35.9994941 45.31663999 40.60742106 45.12280018 46 42 C50.67134555 37.08279416 51.30065857 33.05443767 51.21484375 26.50390625 C50.80091227 21.67972302 48.99116251 18.91682532 45.5 15.6875 C41.57463621 13.03787944 38.64788429 12.87976642 34.01953125 12.90234375 C32.97128174 12.90484131 31.92303223 12.90733887 30.84301758 12.90991211 C29.51294678 12.91901611 28.18287598 12.92812012 26.8125 12.9375 C22.584375 12.958125 18.35625 12.97875 14 13 Z " fill="#000" transform="translate(1697,675)"/>
<path d="M0 0 C50.76470588 0 50.76470588 0 59 8 C64.71644154 14.72522534 66.40123909 23.54207832 65.9375 32.1875 C65.04277198 39.61763272 62.44283646 46.70426722 57 52 C50.19953284 56.42470322 45.18082436 58.13212214 37.046875 58.09765625 C35.83870117 58.09515869 34.63052734 58.09266113 33.38574219 58.09008789 C31.85594727 58.08098389 30.32615234 58.07187988 28.75 58.0625 C23.8825 58.041875 19.015 58.02125 14 58 C14 70.21 14 82.42 14 95 C9.38 95 4.76 95 0 95 C0 63.65 0 32.3 0 0 Z M14 13 C14 23.56 14 34.12 14 45 C17.980625 45.061875 21.96125 45.12375 26.0625 45.1875 C27.30394775 45.21481201 28.54539551 45.24212402 29.82446289 45.27026367 C35.9994941 45.31663999 40.60742106 45.12280018 46 42 C50.67134555 37.08279416 51.30065857 33.05443767 51.21484375 26.50390625 C50.80091227 21.67972302 48.99116251 18.91682532 45.5 15.6875 C41.57463621 13.03787944 38.64788429 12.87976642 34.01953125 12.90234375 C32.97128174 12.90484131 31.92303223 12.90733887 30.84301758 12.90991211 C29.51294678 12.91901611 28.18287598 12.92812012 26.8125 12.9375 C22.584375 12.958125 18.35625 12.97875 14 13 Z " fill="#000" transform="translate(2030,675)"/>
<path d="M0 0 C22.44 0 44.88 0 68 0 C68 4.29 68 8.58 68 13 C59.09 13 50.18 13 41 13 C41 40.06 41 67.12 41 95 C36.38 95 31.76 95 27 95 C27 67.94 27 40.88 27 13 C18.09 13 9.18 13 0 13 C0 8.71 0 4.42 0 0 Z " fill="#000" transform="translate(2348,675)"/>
<path d="M0 0 C4.62 0 9.24 0 14 0 C14 31.35 14 62.7 14 95 C9.38 95 4.76 95 0 95 C0 63.65 0 32.3 0 0 Z " fill="#000" transform="translate(2456,675)"/>
</svg>
